<?xml version="1.0" encoding="UTF-8"?>
<svg width="125px" height="122px" viewBox="0 0 125 122" version="1.1" xmlns="http://www.w3.org/2000/svg" xmlns:xlink="http://www.w3.org/1999/xlink">
    <title>orel</title>
    <g id="Page-1" stroke="none" stroke-width="1" fill="none" fill-rule="evenodd">
        <g id="orel" fill="#C4C8CB">
            <path d="M117.503,36.7597 C114.606,38.8754 111.489,40.6723 108.207,42.1192 C108.272,41.9362 108.321,41.7483 108.356,41.5572 L108.461,41.0678 L108.478,40.9885 L108.395,40.962 L107.903,40.8265 C107.721,40.7741 107.537,40.7333 107.35,40.7041 C108.911,39.8048 110.485,38.7832 112.043,37.6689 C113.433,36.6829 114.63,35.4501 115.575,34.032 L115.717,33.8105 L115.469,33.8997 C113.886,34.4735 112.393,35.2719 111.038,36.2704 C109.191,37.5982 107.424,39.0334 105.746,40.5686 C105.009,40.5748 104.274,40.6579 103.554,40.8166 C106.552,37.3131 109.957,34.1788 113.696,31.4795 C117.857,28.484 121.253,28.1566 122.526,28.1566 C122.747,28.1538 122.968,28.1659 123.188,28.193 C123.115,28.8377 122.503,33.136 117.503,36.7465 L117.503,36.7597 Z M105.121,37.6293 C105.77,36.4205 106.157,35.0891 106.259,33.7212 C110.317,30.4149 112.446,26.8044 112.599,22.9856 C110.684,26.1394 108.542,29.1495 106.189,31.992 C106.167,31.7806 106.132,31.5708 106.084,31.3638 C105.936,30.6615 105.668,29.9902 105.29,29.38 C111.355,21.0613 113.908,14.6272 114.236,13.7609 C115.889,14.6768 116.967,16.2671 117.357,18.3898 C117.999,21.868 116.617,26.1795 113.839,29.38 C111.226,32.4239 108.309,35.1935 105.135,37.6458 L105.121,37.6293 Z M103.421,19.6561 C103.441,20.4899 103.745,21.2922 104.281,21.9308 C104.748,22.5921 105.154,23.1641 104.804,24.2188 C104.44,23.141 103.812,22.7541 103.15,22.3507 C102.666,22.0925 102.237,21.7421 101.887,21.3192 L101.738,21.4117 C102.111,22.1644 102.315,22.9891 102.337,23.8287 C102.337,25.1314 101.715,26.2191 100.501,27.0656 C100.762,26.4236 100.909,25.7411 100.935,25.0487 C100.918,24.363 100.715,23.6946 100.349,23.1145 C99.9012,22.3782 99.6644,21.5329 99.6646997,20.6711 C99.6646997,19.59 100.157,18.6278 100.624,17.6954 C101.09,16.7631 101.579,15.8274 101.579,14.766 C101.579,14.6272 101.579,14.485 101.56,14.3461 C103.722,14.485 104.85,15.1727 104.893,15.1992 L105.267,15.4604 C105.32,16.4523 104.774,17.1929 104.248,17.9137 C103.822,18.4956 103.425,19.0444 103.425,19.6528 L103.421,19.6561 Z M95.6764,12.0317 C94.4527,11.3407 93.292,10.6893 91.6252,10.6893 C91.1963,10.6903 90.7687,10.7346 90.3487,10.8216 C91.1013,10.3984 91.8891,10.0411 92.7033,9.75365 C93.1618,9.57647 93.597,9.34444 93.9997,9.06263 C94.4594,8.76176 94.8264,8.53031 95.2927,8.53031 C96.4171,8.53031 97.277,9.50237 98.2029,10.5141 C99.1289,11.5258 100.104,12.6632 101.484,12.8847 C103.746,13.2484 104.655,14.0089 104.996,14.4222 C104.407,14.1378 103.035,13.6022 100.809,13.6022 C98.494,13.6022 97.0554,12.7988 95.6764,12.0185 L95.6764,12.0317 Z M93.1299,11.6349 C92.7897,12.2515 92.6036,12.9412 92.5876,13.6452 C92.5876,14.6569 92.9183,15.629 93.3019,16.6209 C93.6855,17.6128 94.0824,18.7502 94.0824,19.9272 C94.0824,22.0796 92.7364,23.6865 90.0775,24.7048 C88.9458,25.1236 87.7677,25.4045 86.5687,25.5413 C87.8915,24.8801 91.4929,22.9194 91.4929,20.5422 C91.4929,19.4908 90.9473,18.3137 90.3652,17.0772 C89.7501,15.7546 89.1119,14.3858 89.1119,13.1096 C89.1147,12.6801 89.2024,12.2553 89.3698,11.8598 C90.0905,11.5831 90.8534,11.4321 91.6252,11.413344 C92.1351,11.411 92.6424,11.4857 93.1299,11.6349 L93.1299,11.6349 Z M82.2663,32.4119 C83.7964,30.9256 84.9485,29.0946 85.6262,27.0722 C85.7299,27.0738 85.8319,27.0987 85.9246,27.145 C86.0174,27.1914 86.0985,27.258 86.162,27.34 C86.2462,27.4545 86.3041,27.5862 86.3315,27.7256 C86.359,27.8651 86.3553,28.0089 86.3207,28.1467 C85.8875,29.8693 84.0058,31.3638 82.2663,32.4119 L82.2663,32.4119 Z M83.3245,23.5509 C82.7178,23.4446 82.1046,23.3794 81.4891,23.3559 L82.8781,16.4523 C84.6143,16.8259 85.9966,17.5334 85.9966,19.1238 C85.9966,20.6579 84.558,23.3592 84.2902,23.8584 C83.9732,23.7175 83.6399,23.6164 83.2981,23.5575 L83.3245,23.5509 Z M79.3924,17.54 C79.3924,16.3894 80.0869,16.0423 80.6127,16.0423 C81.1386,16.0423 81.833,16.3894 81.833,17.54 C81.833,18.4691 80.96,22.0135 80.6127,23.3393 C80.282,22.0168 79.3924,18.4691 79.3924,17.54 Z M81.4626084,14.6966 C81.4626084,14.8647 81.4128,15.0289 81.3194,15.1687 C81.226,15.3084 81.0933,15.4173 80.938,15.4816 C80.7827,15.546 80.6118,15.5628 80.4469,15.53 C80.282,15.4972 80.1306,15.4163 80.0117,15.2974 C79.8929,15.1786 79.8119,15.0272 79.7791,14.8624 C79.7464,14.6975 79.7632,14.5267 79.8275,14.3714 C79.8918,14.2162 80.0008,14.0834 80.1405,13.9901 C80.2803,13.8967 80.4446,13.8468916 80.6127,13.8468916 C80.7245,13.8464 80.8352,13.8681 80.9385,13.9107 C81.0418,13.9532 81.1357,14.0158 81.2147,14.0948 C81.2937,14.1738 81.3563,14.2676 81.3988,14.3709 C81.4414,14.4742 81.4631,14.5849 81.4626084,14.6966 L81.4626084,14.6966 Z M81.1319,13.3113 L80.0671,13.3113 C80.1934,13.0166 80.293,12.7112 80.3647,12.3987 C80.0542,12.4716 79.751,12.5723 79.4586,12.6996 L79.4586,11.6283 C79.751,11.7556 80.0542,11.8563 80.3647,11.9292 C80.2936,11.6176 80.194,11.3133 80.0671,11.02 L81.1253,11.02 C80.9998,11.3135 80.9012,11.6178 80.831,11.9292 C81.1426,11.8568 81.4471,11.7561 81.7404,11.6283 L81.7404,12.6996 C81.4471,12.5719 81.1426,12.4712 80.831,12.3987 C80.9019,12.711 81.0004,13.0164 81.1253,13.3113 L81.1319,13.3113 Z M77.891,23.5609 C77.5492,23.6199 77.2159,23.721 76.8989,23.8617 C76.6244,23.3625 75.1958,20.6612 75.1958,19.1271 C75.1958,17.5367 76.5814,16.8292 78.3143,16.4556 L79.7132,23.3658 C79.0988,23.3897 78.4867,23.4549 77.8811,23.5609 L77.891,23.5609 Z M66.5412,18.7667 C65.6301,18.6032 64.7083,18.506 63.7831,18.4757 L65.9129,7.98477 C68.5122,8.55015 70.6023,9.60156 70.6023,11.9887 C70.6023,14.5346 67.9765,19.2163 67.9765,19.2163 C67.5212,19.0006 67.0382,18.8493 66.5412,18.7667 L66.5412,18.7667 Z M60.6216,9.65116 C60.6216,7.90872 61.6832,7.37971 62.4868,7.37971 C63.2904,7.37971 64.342,7.90872 64.342,9.65116 C64.342,11.0696 62.9994,16.4456 62.4868,18.4658 C61.9775,16.4523 60.6216,11.0696 60.6216,9.65116 Z M63.7600036,5.42898 C63.7606,5.68168 63.6862,5.92888 63.5462,6.13927 C63.4062,6.34965 63.2069,6.51374 62.9735,6.61074 C62.7401,6.70775 62.4832,6.7333 62.2352,6.68416 C61.9873,6.63502 61.7595,6.51341 61.5808,6.33472 C61.4021,6.15604565 61.2805,5.92833 61.2313,5.68046 C61.1822,5.43258 61.2077,5.1757 61.3047,4.94236 C61.4018,4.70903 61.5659,4.50974 61.7763,4.36976 C61.9868,4.22977 62.234,4.15539 62.4868,4.15604565 C62.654,4.15604565 62.8195,4.18897 62.974,4.25294 C63.1285,4.31692 63.2688,4.41068 63.3871,4.52888 C63.5053,4.64708 63.5991,4.78741 63.6631,4.94185 C63.727,5.09629 63.7600036,5.26182 63.7600036,5.42898 L63.7600036,5.42898 Z M63.2838,3.44519 L61.6798,3.44519 C61.8714,3.00367 62.022,2.54546 62.1296,2.07637 C61.6635,2.18509 61.2085,2.33672 60.7704,2.52934 L60.7704,0.912546 C61.2085,1.10516 61.6635,1.2568 62.1296,1.36551 C62.0221,0.897465 61.8715,0.44035 61.6798,0 L63.2838,0 C63.0935,0.440549 62.944,0.89764 62.8373,1.36551 C63.3098,1.25685 63.7714,1.10523 64.2164,0.912546 L64.2164,2.51611 C63.7757,2.32419 63.3186,2.17258 62.8505,2.06315 C62.9573,2.53207 63.1068,2.99025 63.297,3.43196 L63.2838,3.44519 Z M58.4555,18.7667 C57.9614,18.8455 57.4806,18.9924 57.0268,19.2031 L57.0268,19.2031 C57.0268,19.2031 54.4043,14.5214 54.4043,11.9755 C54.4043,9.58834 56.4911,8.53692 59.0871,7.97154 L61.2169,18.4757 C60.2917,18.506 59.3699,18.6032 58.4588,18.7667 L58.4555,18.7667 Z M47.1057,23.5377 C46.5001,23.431 45.888,23.3658 45.2736,23.3426 L46.6757,16.4324 C48.402,16.806 49.791,17.5136 49.791,19.1039 C49.791,20.6381 48.3623,23.3393 48.0945,23.8386 C47.7771,23.6986 47.444,23.5976 47.1024,23.5377 L47.1057,23.5377 Z M43.167,17.5268 C43.167,16.3762 43.8714,16.0291 44.3972,16.0291 C44.923,16.0291 45.6208,16.3762 45.6208,17.5268 C45.6208,18.4559 44.7378,22.0003 44.3972,23.3261 C44.0665,22.0036 43.167,18.4559 43.167,17.5268 Z M45.2471,14.6834 C45.2471,14.8514 45.1973,15.0157 45.1039,15.1555 C45.0105,15.2952 44.8777,15.4041 44.7224,15.4684 C44.5671,15.5327 44.3962,15.5496 44.2314,15.5168 C44.0665,15.484 43.9151,15.4031 43.7962,15.2842 C43.6773,15.1654 43.5964,15.014 43.5636,14.8492 C43.5308,14.6843 43.5476,14.5135 43.612,14.3582 C43.6763,14.2029 43.7852,14.0702 43.925,13.9769 C44.0648,13.8835 44.2291,13.8337 44.3972,13.8337 C44.6223,13.8345 44.838,13.9243 44.9972,14.0835 C45.1564,14.2427 45.2462,14.4583 45.2471,14.6834 L45.2471,14.6834 Z M44.9164,13.298 L43.8482,13.298 C43.9759,13.0036 44.0766,12.6981 44.1492,12.3855 C43.8363,12.4575 43.5308,12.5582 43.2364,12.6864 L43.2364,11.6151 C43.5308,11.7432 43.8363,11.844 44.1492,11.916 C44.0772,11.6042 43.9765,11.2999 43.8482,11.0067 L44.9164,11.0067 C44.7881,11.2999 44.6874,11.6042 44.6155,11.916 C44.9283,11.844 45.2338,11.7432 45.5282,11.6151 L45.5282,12.6864 C45.2338,12.5582 44.9283,12.4575 44.6155,12.3855 C44.688,12.6981 44.7887,13.0036 44.9164,13.298 L44.9164,13.298 Z M41.6689,23.5476 C41.3326,23.6077 41.005,23.7087 40.6933,23.8485 C40.4188,23.3492 38.9868,20.648 38.9868,19.1139 C38.9868,17.5235 40.3791,16.816 42.1054,16.4423 L43.5109,23.3526 C42.8932,23.3759 42.2778,23.4411 41.6689,23.5476 L41.6689,23.5476 Z M42.7337,32.4086 C40.9876,31.3605 39.096,29.866 38.6793,28.1434 C38.6443,28.0058 38.64,27.8621 38.6669,27.7227 C38.6938,27.5832 38.7511,27.4514 38.8347,27.3367 C38.8966,27.253 38.9774,27.1852 39.0705,27.1387 C39.1636,27.0921 39.2664,27.0682 39.3705,27.0688851 C40.0574,29.0957 41.221,30.9281 42.7635,32.4119 L42.7337,32.4086 Z M38.4346,25.5513 C37.2369,25.4152 36.0599,25.1355 34.9291,24.7181 C32.2835,23.6997 30.9276,22.0928 30.9276,19.9404 C30.9276,18.7601 31.3244,17.6756 31.7047,16.6341 C32.085,15.5926 32.4257,14.6503 32.4257,13.6584 C32.4083,12.9542 32.2211,12.2646 31.88,11.6482 C32.3663,11.4984 32.8726,11.4237 33.3814,11.4266131 C34.1553,11.4454 34.9204,11.5964 35.6434,11.873 C35.8108,12.2686 35.8985,12.6933 35.9014,13.1228 C35.9014,14.4123 35.2631,15.7678 34.6447,17.0904 C34.0626,18.3269 33.517,19.504 33.517,20.5554 C33.517,22.9327 37.1117,24.9065 38.4379,25.5546 L38.4346,25.5513 Z M29.3269,12.0284 C27.9479,12.8087 26.5193,13.6121 24.201,13.6121 C21.9654,13.6121 20.5963,14.1478 20.0143,14.4321 C20.345,14.0188 21.261,13.2584 23.5264,12.8947 C24.9054,12.6731 25.8711,11.5721 26.807,10.524 C27.7429,9.47592 28.5829,8.54023 29.7139,8.54023 C30.1835,8.54023 30.5406,8.77167 31.0069,9.07255 C31.4124,9.3536 31.8498,9.58556 32.3099,9.76357 C33.122,10.0536 33.9085,10.4108 34.6612,10.8315 C34.239,10.7445 33.8092,10.7002 33.3781,10.6993 C31.7246,10.6993 30.5506,11.3605 29.3269,12.0416 L29.3269,12.0284 Z M19.7365,15.4604 L20.1135,15.2124 C20.1598,15.1859 21.2842,14.4982 23.4536,14.3594 C23.4536,14.4982 23.4338,14.6404 23.4338,14.7793 C23.4338,15.8406 23.9133,16.7895 24.3895,17.7087 C24.8657,18.6278 25.3453102,19.5966 25.3453102,20.6844 C25.3471,21.5464 25.1101,22.3921 24.6607,23.1277 C24.2948,23.7082 24.0915,24.3761 24.072,25.0619 C24.0969,25.7499 24.2389,26.4286 24.492,27.0689 C23.2684,26.2224 22.6599,25.1347 22.6599,23.832 C22.6802,22.992 22.8821,22.1663 23.2519,21.4117 L23.0998,21.3192 C22.7516,21.7411 22.3248,22.0914 21.8431,22.3507 C21.1817,22.7541 20.5533,23.141 20.1896,24.2188 C19.8324,23.1641 20.2359,22.5855 20.7055,21.9308 C21.2434,21.2932 21.5459,20.4901 21.562,19.6561 C21.562,19.0477 21.1618,18.4989 20.7385,17.917 C20.2127,17.1962 19.667,16.4523 19.7266,15.4637 L19.7365,15.4604 Z M18.8171,31.992 C16.4713,29.1471 14.3348,26.136 12.4246,22.9822 C12.5767,26.8011 14.7098,30.4082 18.7609,33.7179 C18.8543,35.0839 19.2328,36.4151 19.8721,37.6259 C16.699,35.1727 13.7837,32.4032 11.1712,29.3601 C8.3933,26.1596 7.01426,21.8482 7.65913,18.3699 C8.04937,16.2572 9.12747,14.6668 10.7777,13.7411 C11.1084,14.6073 13.6614,21.0414 19.7067,29.3601 C19.3326,29.9714 19.0664,30.6425 18.9197,31.3439 C18.8767,31.5423 18.837,31.7539 18.8105,31.9721 L18.8171,31.992 Z M21.4396,40.8265 C20.7182,40.6684 19.9823,40.5853 19.2437,40.5785 C17.5623,39.0473 15.7958,37.6123 13.9525,36.2803 C12.5954,35.2817 11.1019,34.4833 9.5177,33.9096 L9.26967,33.8204 L9.41849,34.0419 C10.3593,35.4622 11.5558,36.6955 12.9471,37.6788 C14.5014,38.7931 16.0756,39.8147 17.6365,40.7141 C17.4492,40.7445 17.2637,40.7853 17.0809,40.8364 L16.5882,40.9719 L16.5121,40.9984 L16.5121,41.0777 L16.6146,41.5671 C16.6547,41.7575 16.7066,41.9452 16.7701,42.1292 C13.4853,40.6845 10.3672,38.8874 7.47063,36.7696 C2.46375,33.1591 1.84864,28.8609 1.78911,28.2162 C2.00847,28.1886 2.22948,28.1765 2.45053,28.1798 C3.72043,28.1798 7.12008,28.5104 11.2737,31.5026 C15.0157,34.2022 18.4238,37.3365 21.4264,40.8397 L21.4396,40.8265 Z M9.58384,40.033 C12.1921,40.8742 14.7345,41.9075 17.1901,43.1244 C17.5794,43.967 18.0823,44.7524 18.6849,45.4586 C16.829,44.6408 14.9315,43.9213 13,43.3029 C11.4332,42.7831 9.79873,42.4957 8.14858,42.4499 L7.88401,42.4499 L8.08905,42.6152 C9.4003,43.6448 10.8902,44.4238 12.4841,44.9131 C14.9292,45.7041 17.4296,46.3131 19.9647,46.7349 C20.3316,47.0304 20.7171,47.3021 21.1188,47.5482 C21.4892,47.7697 21.8596,47.9913 22.2465,48.2095 C21.7538,48.2392 21.2544,48.2525 20.7286,48.2525 C17.9871,48.2525 13.4928,47.859 7.65252,45.9909 C2.08675,44.1989 0.254643,40.4826 0,39.9073 C1.33292,39.3639 2.76435,39.1038 4.20326,39.1436 C6.02765,39.1634 7.83806,39.4645 9.57061,40.0363 L9.58384,40.033 Z M9.15392,47.5317 C11.8545,47.8727 14.5308,48.384 17.1669,49.0625 C16.7418,49.2452 16.3345,49.4666 15.9499,49.7238 L15.4009,50.1007 L15.6159,50.4313 C14.7693,50.2826 13.926,50.1569 13.0926,50.0511 C12.3685,49.9617 11.6396,49.9153 10.91,49.9122 L10.5594,49.9122 C9.85211,49.9298 9.14698,49.9983 8.44952,50.1172 L8.19157,50.1602 L8.42306,50.2859 C9.81717,51.0133 11.3345,51.4753 12.8975,51.6481 C14.2203,51.8101 15.5762,51.9291 16.9023,51.9787 L16.9255,51.9787 C17.8194,52.824 18.8697,53.4866 20.0176,53.9294 C18.8271,53.9294 17.3356,53.9294 16.5849,53.9294 C13.8667,53.9386 11.1503,53.7895 8.44952,53.4831 C2.92343,52.8218 0.542355,49.7039 0.181886,49.1849 C0.585347,48.8939 2.85068,47.3895 6.96465,47.3895 C7.69199,47.3903 8.41863,47.4345 9.14069,47.5218 L9.15392,47.5317 Z M11.6838,54.5411 C13.668,54.5411 17.1338,54.6634 19.7464,54.9147 C18.7691,55.3266 17.8654,55.895 17.071,56.5976 L17.071,56.5976 C16.3523,56.5558 15.638,56.5348 14.928,56.5348 C14.5047,56.5348 14.0748,56.5348 13.6548,56.5547 C13.5854,56.5547 13.5258,56.5547 13.4597,56.5547 C12.2448,56.603 11.0445,56.8383 9.90132,57.2523 L9.67644,57.3382 L9.90132,57.4242 C10.9937,57.8219 12.1484,58.0212 13.3109,58.0127 C13.4399,58.0127 13.5721,58.0127 13.6978,58.0127 C13.8896,58.0127 14.0781,58.0127 14.2633,57.9929 C14.8652,57.9665 15.4704,57.9202 16.0557,57.8739 L16.4724,58.2309 C16.9732,58.6563 17.5214,59.0224 18.1061,59.322 L18.1656,59.3518 C15.5741,59.9077 12.9375,60.2275 10.2882,60.3073 L9.74589,60.3073 C4.84153,60.3073 2.33147,57.8838 1.93793,57.4639 C2.33147,57.0671 4.84152,54.7428 10.0898,54.5642 C10.6156,54.5444 11.1547,54.5345 11.6904,54.5345 L11.6838,54.5411 Z M12.3452,61.2926 C14.756,60.6389 17.2191,60.1964 19.7067,59.9701 C20.6612,60.2707 21.6559,60.4245 22.6566,60.4264 C22.8914,60.4264 23.1328,60.4098 23.3709,60.3999 C23.6091,60.39 23.8968,60.3668 24.1646,60.3338 C23.8635,60.4827 23.571,60.6483 23.2883,60.8297 C21.023,61.0567 18.7785,61.458 16.5749,62.0299 C15.1953,62.382 13.8781,62.944 12.6693,63.6963 L12.5106,63.8021 L12.6892,63.8583 C12.898,63.901 13.1111,63.9188 13.3241,63.9112 C14.7194,63.8736 16.106,63.6795 17.4579,63.3326 C19.2305,62.8433 20.5897,62.4201 21.8034,61.9737 C21.075,62.6662 20.472,63.4794 20.0209,64.3774 C17.9978,65.2736 15.9067,66.0077 13.7673,66.5728 C12.6703,66.8749 11.5384,67.0316 10.4007,67.039 C7.57315,67.039 5.82703,65.981 5.47648,65.7495 C5.75427,65.2833 7.55662,62.5622 12.3386,61.2794 L12.3452,61.2926 Z M16.0822,67.039 C17.2331,66.4108 18.4302,65.8355 19.6571,65.3164 L19.5711,65.6041 L19.5513,65.69 L19.6174,65.7132 L20.0573,65.9115 C20.3339,66.0243 20.6179,66.1182 20.9072,66.1926 C21.056,66.2323 21.2379,66.2719 21.3933,66.305 C20.8245,66.5761 20.259,66.8671 19.7034,67.1679 C18.6662,67.7216 17.723,68.4358 16.909,69.284 L16.7304,69.4625 L16.9817,69.4295 C18.1571,69.2567 19.2912,68.8713 20.3285,68.2921 C21.3801,67.7168 22.402,67.0952 23.3544,66.4637 C24.514,66.4201 25.6564,66.1693 26.7276,65.7231 C24.3141,68.0714 21.5768,70.0622 18.5989,71.6348 C18.3343,71.7759 18.0697,71.9081 17.8052,72.0315 C17.8006,72.0642 17.7928,72.0963 17.782,72.1274 L17.782,72.2564 C17.919,72.3159 18.0399,72.407 18.1349,72.5222 C18.2298,72.6375 18.2962,72.7735 18.3284,72.9193 C18.3607,73.0651 18.358,73.2164 18.3205,73.361 C18.283,73.5055 18.2118,73.6391 18.1127,73.7508 L18.9163,75.4304 L18.8932,75.3809 C18.8138,74.9378 18.6848,74.4749 18.6419,73.9988 C18.7311,74.3493 18.8502,74.7526 19.0089,75.2023 C19.5644,73.8618 20.3677,72.638 21.3768,71.5951 C22.815,70.0527 24.3852,68.6389 26.0695,67.3696 C25.7336,68.1693 25.5281,69.0177 25.461,69.8824 C25.1303,70.1866 24.8426,70.4974 24.5615,70.8016 C23.803,71.5855 23.1774,72.4878 22.7095,73.4731 L22.607,73.7079 L22.8319,73.5987 C23.8139,73.0982 24.6987,72.4264 25.4445,71.6149 C25.5999,71.4463 25.752,71.2843 25.924,71.0926 L26.0265,71.0926 C26.0265,71.0926 26.1191,71.0926 26.2878,71.0926 C27.0176,71.0874 27.7429,70.976 28.4407,70.7619 C27.3977,72.2483 26.247,73.6561 24.998,74.9742 C23.7,76.423 22.0106,77.4656 20.1333,77.9763 L25.547,89.2608 C26.3936,89.5121 26.5821,90.3056 26.4564,90.9437 C26.5796,90.9557 26.699,90.9931 26.8072,91.0534 C26.9153,91.1137 27.0098,91.1957 27.0848,91.2942 C26.6449,91.3537 26.6449,91.7372 26.8334,92.0546 C27.1476,92.5638 28.0603,92.5638 28.1199,94.0583 C28.811,94.3724 29.0029,95.2948 28.7482,96.0586 C29.0349,96.3674 29.2685,96.7216 29.4394,97.1067 C29.7238,96.6603 30.4315,96.7761 30.6696,96.9777 C31.6419,96.0586 32.8688,96.5347 33.3153,98.0259 C33.8212,99.5831 35.7393,100.218 36.8373,100.029 C38.1898,99.8377 40.5445,98.9152 41.8342,98.2804 C42.4544,97.9769 43.0543,97.6334 43.6299,97.2522 C43.6442,97.1888 43.6552,97.1248 43.663,97.0604 C44.1624,96.8587 45.1049,96.4686 45.6473,96.2008 C46.2624,95.8933 47.1916,94.9906 47.5157,94.6666 C48.0779,95.6585 49.3445,96.9315 49.7844,97.3679 C49.8108,97.434 49.834,97.4968 49.8505,97.553 C50.1052,98.2143 50.8889,98.8524 51.0179,99.5831 C51.0361,99.7461 51.0068,99.9108 50.9334,100.058 C50.8601,100.204 50.7459,100.326 50.6045,100.41 C49.662,101.14 48.0614,100.79 46.8973,100.664 C45.9545,100.622 45.0098,100.643 44.0698,100.727 C41.2092,100.916 38.6958,102.351 36.4636,103.967 C36.0568,104.222 34.9225,104.959 34.0097,105.528 C34.1855,105.961 34.2721,106.426 34.2644,106.893 C34.5613,107.077 34.7759,107.367 34.8634,107.705 C34.9509,108.043 34.9045,108.401 34.734,108.705 C34.9225,109.082 35.0481,109.697 34.8001,110.005 C34.9293,110.252 34.967,110.538 34.9065,110.81 C34.846,111.083 34.6912,111.326 34.4694,111.496 C34.2128,111.622 33.9177,111.647 33.6438,111.564 C33.3699,111.481 33.1378,111.297 32.9945,111.049 C32.7349,111.008 32.4929,110.892 32.2976,110.716 C32.1022,110.54 31.9618,110.311 31.8932,110.058 C30.7291,109.727 30.2893,108.755 30.9176,107.994 C30.37,107.72 29.8533,107.387 29.3766,107.003 C28.7482,106.94 27.7759,106.559 27.7759,105.515 C26.5821,105.449 25.7917,104.814 26.0463,103.385 C25.418,103.194 25.1038,102.939 24.9782,102.146 C24.8558,101.031 25.924,100.016 26.3936,99.3484 C26.3308,98.902 25.9835,97.6655 25.9835,97.2852 C25.6369,97.1407 25.3499,96.8826 25.1696,96.5533 C24.9893,96.224 24.9264,95.8431 24.9914,95.4734 C23.9563,94.6468 24.6442,93.4069 24.5185,93.0267 C24.3333,92.4878 23.9563,92.5506 23.7016,92.7423 C23.6958,92.466 23.7857,92.1961 23.9563,91.9786 C23.3875,91.724 23.1361,91.0561 23.3875,90.2924 L18.4269,78.1813 L18.3707,78.1813 L18.3707,78.0457 L16.8395,74.3129 C16.0524,74.055 15.8011,73.6781 15.9268,73.1028 C15.7506,73.0405 15.5862,72.9489 15.4406,72.8317 C14.7362,72.9908 14.0165,73.0728 13.2944,73.0763 C12.455,73.0902 11.6195,72.9605 10.824,72.6928 C10.9695,72.1936 12.0013,69.2642 16.0822,67.0291 L16.0822,67.039 Z M42.7999,108.153 C41.7615,107.492 41.3216,106.278 41.8871,104.596 C42.327,103.356 43.8714,102.433 45.0288,102.688 C43.8681,103.799 44.5262,105.23 45.7233,105.164 C47.2644,105.101 48.7393,103.18 50.7203,101.993 C52.3341,101.107 53.6437,100.754 55.0459,100.039 L54.8938,100.191 C54.8938,100.191 57.2649,99.1996 58.2008,98.5383 C58.8281,98.069 59.385,97.5123 59.8544,96.8852 C59.9667,97.4735 60.1913,98.0348 60.5158,98.5383 C60.6875,98.7864 60.8741,99.0238 61.0747,99.2492 C60.6254,102.003 59.8171,104.687 58.6704,107.231 C57.6783,109.519 56.1868,114.835 58.7961,116.191 C58.5448,114.224 59.0772,109.836 59.8345,106.85 C60.2942,105.158 61.5079,101.736 61.3855,99.5765 C61.619,99.8146 61.8825,100.021 62.1693,100.191 C62.6096,99.9195 63.0009,99.5752 63.3268,99.1731 C62.9961,101.279 64.4049,105.048 64.8943,106.85 C65.6781,109.826 66.1807,114.224 65.9294,116.191 C68.5354,114.822 67.0604,109.519 66.0551,107.231 C64.8463,104.583 64.003,101.783 63.5483,98.9086 C63.6376,98.7929 63.7269,98.6739 63.8195,98.5383 C64.144,98.0348 64.3686,97.4735 64.4809,96.8852 C64.9503,97.5123 65.5072,98.069 66.1345,98.5383 C67.0703,99.1996 69.4415,100.191 69.4415,100.191 L68.7801,99.5302 C70.5461,100.628 72.0541,100.919 74.0052,101.99 C75.9895,103.164 77.4611,105.098 79.0022,105.161 C80.2258,105.227 80.8541,103.795 79.6934,102.684 C80.8541,102.43 82.3952,103.346 82.8351,104.592 C83.4336,106.275 82.9607,107.482 81.9554,108.15 C82.7338,108.545 83.3506,109.198 83.7005,109.998 C84.0503,110.798 84.1115,111.694 83.8735,112.534 C83.4336,114.283 81.671,114.283 82.3324,116.502 C81.8781,116.395 81.463,116.163 81.1348,115.831 C80.8067,115.5 80.5787,115.082 80.4771,114.627 C80.3548,113.966 80.2258,113.261 79.8819,112.944 C79.9238,113.802 79.7179,114.654 79.2886,115.398 C78.8593,116.142 78.2249,116.746 77.4611,117.14 C76.2342,117.745 74.3194,117.996 72.8312,116.442 C72.2657,118.188 70.1294,119.682 68.0823,119.616 C67.1518,119.573 66.2508,119.277 65.4763,118.76 C64.8278,120.165 63.7197,121.308 62.3346,122 C60.9665,121.305 59.8786,120.161 59.2525,118.76 C58.4642,119.279 57.5499,119.575 56.6068,119.616 C54.5002,119.682 52.4565,118.188 51.8612,116.442 C50.383,117.996 48.4682,117.745 47.2313,117.14 C46.467,116.747 45.8321,116.143 45.4027,115.398 C44.9734,114.654 44.7678,113.802 44.8106,112.944 C44.4799,113.275 44.3707,113.962 44.2418,114.627 C44.1288,115.082 43.8933,115.497 43.561,115.827 C43.2287,116.158 42.8122,116.391 42.3567,116.502 C43.0181,114.283 41.2886,114.283 40.819,112.534 C40.578,111.691 40.641,110.79 40.997,109.988 C41.3531,109.187 41.9795,108.536 42.7668,108.15 L42.7999,108.153 Z M73.1586,112.822 C74.6964,112.822 75.8043,111.83 75.0139,110.471 C74.584,111.132 73.7539,111.39 73.0297,111.463 C73.1317,111.91 73.1751,112.369 73.1586,112.828 L73.1586,112.822 Z M68.9487,103.862 C70.0798,105.485 70.9892,106.659 71.7432,108.662 C73.0958,108.533 72.8445,106.85 72.4046,105.994 C71.4919,104.308 67.7747,102.119 65.9294,99.9237 C66.7496,101.332 67.9136,102.622 68.9487,103.862 Z M52.9823,108.652 C53.7363,106.649 54.6358,105.475 55.8098,103.852 C56.8251,102.589 57.9759,101.322 58.7862,99.9138 C56.9309,102.109 53.2237,104.298 52.311,105.984 C51.8711,106.841 51.6198,108.523 52.9724,108.652 L52.9823,108.652 Z M51.5669,112.812 C51.5587,112.356 51.5797,111.9 51.6297,111.446 C50.9352,111.367 50.1217,111.079 49.7116,110.454 C48.9278,111.82 50.0423,112.805 51.5669,112.805 L51.5669,112.812 Z M74.8419,100.294 C74.4649,99.4376 75.5629,99.2492 75.7514,97.1827 C75.7514,97.1133 75.7977,96.8521 75.834,96.624 C75.7381,96.6636 75.6455,96.6934 75.5496,96.7232 C76.161,96.0987 76.7062,95.4129 77.1767,94.6765 C77.5074,95.0072 78.4268,95.9065 79.0452,96.214 C79.7992,96.5909 81.3601,97.2059 81.3601,97.2059 L81.0294,96.5446 C80.3183,96.3245 79.648,95.9894 79.0452,95.5527 C78.1953,94.8915 77.3917,94.2302 77.3917,94.2302 C78.02,92.4084 77.0609,90.5932 77.0609,90.5932 C77.0609,90.5932 77.9076,89.7766 77.8679,88.0904 C78.61,88.8324 79.2636,89.6579 79.8157,90.5502 C79.6642,90.4621 79.5174,90.3661 79.3759,90.2626 L80.0373,91.2545 C80.1063,91.3429 80.1976,91.4114 80.3019,91.4529 C80.3217,91.4992 80.3449,91.5388 80.368,91.5851 C81.2642,93.6152 81.0294,96.214 81.0294,96.214 L81.1055,96.214 C81.1627,96.6522 81.3213,97.071 81.5685,97.4373 C82.2299,98.4292 83.5792,98.8657 84.5845,99.2492 C86.8465,100.106 89.3301,101.058 91.5624,100.74 C91.8435,100.74 93.1002,100.106 93.3217,99.0574 C93.2887,99.0905 93.2887,99.0905 93.2887,99.1202 C93.1172,98.7955 92.9648,98.461 92.8323,98.1184 C92.7208,98.1036 92.6149,98.0607 92.5246,97.9935 C92.4343,97.9264 92.3627,97.8374 92.3164,97.7349 C94.7935,97.4085 97.2886,97.2373 99.787,97.2224 C102.4,97.2224 105.144,97.434 107.039,97.6159 C107.004,97.7403 106.935,97.8528 106.841,97.9413 C106.747,98.0298 106.63,98.091 106.504,98.1184 C106.016,99.533 105.105,100.764 103.894,101.643 L103.894,101.557 C103.937,101.934 103.894,102.483 103.564,102.757 C102.965,103.299 102.089,103.299 101.457,103.68 C100.921,104.01 100.67,104.602 100.105,104.728 C99.3207,104.982 98.451,104.665 97.654,104.857 C96.523,105.171 96.1757,105.935 95.2993,105.935 C94.3072,105.935 94.5751,105.3 93.034,105.045 C92.0419,104.536 90.8646,103.68 89.8295,103.237 C88.2256,102.575 86.3075,102.575 84.5184,102.189 C82.9144,101.858 81.499,101.233 79.8356,101.011 C78.8931,100.82 75.371,100.945 74.8386,100.311 L74.8419,100.294 Z M105.889,96.0652 C105.889,95.9064 105.937,95.7514 106.026,95.6197 C106.114,95.488 106.24,95.3856 106.387,95.3253 C106.534,95.265 106.695,95.2495 106.851,95.2809 C107.007,95.3123 107.149,95.3891 107.262,95.5016 C107.374,95.6141 107.45,95.7572 107.481,95.913 C107.511,96.0687 107.495,96.2301 107.434,96.3767 C107.373,96.5233 107.27,96.6486 107.138,96.7368 C107.006,96.8249 106.851,96.8719 106.692,96.8719 C106.586,96.8719 106.482,96.8511 106.384,96.8105 C106.286,96.7699 106.197,96.7104 106.123,96.6355 C106.048,96.5605 105.989,96.4715 105.949,96.3737 C105.909,96.2758 105.888,96.171 105.889,96.0652 L105.889,96.0652 Z M98.2823,65.7132 C99.3536,66.159 100.496,66.4099 101.656,66.4538 C102.611,67.0853 103.623,67.7069 104.688,68.2822 C105.722,68.8603 106.853,69.2457 108.025,69.4196 L108.276,69.4526 L108.104,69.2741 C107.286,68.4273 106.341,67.7133 105.303,67.158 C104.758,66.8571 104.192,66.5662 103.617,66.2951 C103.789,66.262 103.947,66.2223 104.103,66.1827 C104.393,66.1068 104.678,66.013 104.956,65.9016 L105.392,65.7032 L105.459,65.6801 L105.439,65.5941 L105.356,65.3065 C106.576,65.8256 107.777,66.4009 108.921,67.0291 C113.009,69.2642 114.034,72.1936 114.189,72.6928 C113.393,72.9595 112.558,73.0892 111.719,73.0763 C109.86,73.0493 108.04,72.5498 106.428,71.6249 C103.439,70.0562 100.692,68.0664 98.2691,65.7165 L98.2823,65.7132 Z M104.982,64.3906 C104.535,63.4912 103.933,62.6775 103.203,61.9869 C104.417,62.4333 105.783,62.8565 107.555,63.3458 C108.906,63.6925 110.292,63.8866 111.686,63.9244 C111.9,63.9319 112.114,63.9142 112.324,63.8715 L112.503,63.8153 L112.341,63.7095 C111.134,62.9533 109.818,62.3879 108.438,62.0332 C106.235,61.4619 103.99,61.0606 101.725,60.833 C101.441,60.6523 101.147,60.4868 100.845,60.3371 C101.116,60.3701 101.378,60.3834 101.636,60.4032 C101.894,60.423 102.118,60.4297 102.353,60.4297 C103.354,60.4316 104.349,60.28 105.303,59.98 C107.793,60.2063 110.258,60.6488 112.671,61.3025 C117.453,62.5854 119.256,65.3065 119.533,65.7727 C119.186,66.0041 117.437,67.0621 114.606,67.0621 C113.461,67.0483 112.322,66.8838 111.22,66.5728 C109.082,66.011 106.992,65.2825 104.969,64.3939 L104.982,64.3906 Z M114.725,60.304 C112.077,60.224 109.441,59.9042 106.851,59.3485 L106.917,59.3187 C107.499,59.02 108.044,58.6538 108.541,58.2276 L108.957,57.8706 C109.549,57.9168 110.155,57.9631 110.753,57.9896 C110.942,57.9896 111.127,58.0061 111.309,58.0094 C111.491,58.0127 111.58,58.0094 111.709,58.0094 C112.869,58.0176 114.022,57.8183 115.112,57.4209 L115.34,57.3349 L115.112,57.249 C113.968,56.834 112.766,56.5987 111.55,56.5513 C111.487,56.5513 111.428,56.5513 111.365,56.5513 C110.938,56.5513 110.508,56.5315 110.085,56.5315 C109.381,56.5315 108.66,56.5513 107.942,56.5943 C107.148,55.8917 106.244,55.3233 105.267,54.9114 C107.883,54.6601 111.365,54.5378 113.333,54.5378 C113.865,54.5378 114.408,54.5378 114.94,54.5675 C120.182,54.7461 122.688,57.0704 123.085,57.4672 C122.695,57.8871 120.182,60.3106 115.281,60.3106 L114.732,60.3106 L114.725,60.304 Z M108.409,53.9228 C107.664,53.9228 106.173,53.9426 104.982,53.9228 C106.129,53.4758 107.18,52.8137 108.078,51.9721 L108.098,51.9721 C109.42,51.9093 110.76,51.7902 112.099,51.6415 C113.662,51.4696 115.18,51.0077 116.574,50.2792 L116.805,50.1536 L116.547,50.1106 C115.85,49.9918 115.145,49.9233 114.437,49.9056 L114.09,49.9056 C113.358,49.9086 112.627,49.9549 111.901,50.0445 C111.071,50.1503 110.221,50.2759 109.381,50.4247 L109.592,50.0941 L109.047,49.7172 C108.663,49.4604 108.257,49.239 107.833,49.0559 C110.47,48.3786 113.148,47.8695 115.849,47.5317 C116.573,47.4441 117.3,47.3999 118.029,47.3994 C122.136,47.3994 124.405,48.9038 124.805,49.1948 C124.451,49.7006 122.077,52.8317 116.537,53.493 C113.836,53.8028 111.118,53.9551 108.399,53.9493 L108.409,53.9228 Z M115.433,40.0363 C117.161,39.4622 118.969,39.1599 120.79,39.1402 C122.231,39.1005 123.665,39.3606 125,39.904 C124.745,40.4793 122.913,44.2022 117.331,45.9777 C111.494,47.8458 106.99,48.2392 104.248,48.2392 C103.732,48.2392 103.226,48.2392 102.74,48.1963 C103.124,47.9847 103.501,47.7631 103.861,47.535 C104.264,47.2881 104.65,47.0164 105.019,46.7216 C107.556,46.3015 110.059,45.6925 112.506,44.8999 C114.099,44.4126 115.587,43.6334 116.894,42.602 L117.103,42.4366 L116.841,42.4366 C115.195,42.4823 113.563,42.7697 112,43.2897 C110.072,43.9071 108.179,44.6278 106.328,45.4487 C106.934,44.7428 107.44,43.9575 107.833,43.1144 C110.287,41.8954 112.83,40.8632 115.439,40.0263 L115.433,40.0363 Z M107.645,41.4943 C106.992,43.7653 105.506,45.7064 103.484,46.9299 C101.666,48.0272 99.7587,48.9706 97.7829,49.7502 C97.795,49.6647 97.8028,49.5786 97.8061,49.4923 L97.8061,49.4527 L97.7829,49.4262 L97.6639,49.2973 C97.3937,49.0017 97.087,48.7417 96.7511,48.5236 C98.1248,47.9142 99.459,47.2196 100.746,46.4439 C101.595,45.9293 102.336,45.2557 102.929,44.4601 L103.058,44.2816 L102.843,44.3179 C101.86,44.4717 100.918,44.819 100.071,45.3396 C98.6764,46.1854 97.3416,47.1266 96.0765,48.1566 C95.9608,48.107 95.8417,48.0475 95.7193,48.0078 C95.2803,47.8406 94.8189,47.7392 94.3502,47.7069 C96.3528,45.8043 98.551,44.1186 100.908,42.678 C102.385,41.7805 104.08,41.3048 105.809,41.3026 C106.427,41.299 107.042,41.3655 107.645,41.501 L107.645,41.4943 Z M98.5634,36.2571 C100.729,34.1341 102.557,31.6922 103.984,29.0163 C104.463,29.2808 105.082,30.1404 105.379,31.5159 C105.66,32.8119 105.975,36.2075 102.773,39.7486 C101.124,41.5539 99.2578,43.1486 97.2174,44.4965 C97.9223,43.5192 98.3765,42.3839 98.5403,41.1902 C99.1076,40.7986 99.6378,40.3559 100.124,39.8676 C101.983,37.983 102.505,36.1546 102.621,34.9412 L102.651,34.637 L102.466,34.8784 C101.325,36.3413 100.054,37.698 98.6692,38.9319 L98.4311,39.1402 C98.2697,38.4536 97.9605,37.8105 97.525,37.2556 C97.8557,36.9019 98.2029,36.5547 98.5535,36.2274 L98.5634,36.2571 Z M96.136,36.7531 C96.5296,36.9878 98.0541,38.0756 98.0541,40.5058 C98.0541,42.0399 97.3563,43.6435 96.0434,45.1346 C94.8093,46.5084 93.3215,47.6311 91.6616,48.4409 L91.5789,48.4773 L91.6219,48.5633 L91.6682,48.6459 L91.7079,48.7187 L91.7906,48.6922 C92.4755,48.3905 93.2149,48.2319 93.9633,48.226 C94.4994,48.2224 95.0318,48.3165 95.5342,48.5038 C96.1823,48.7518 96.7682,49.1389 97.2505,49.6378 C97.1987,50.3386 96.9847,51.0177 96.6255,51.6216 C95.9258,52.7192 94.8201,53.4954 93.5499,53.7806 L93.4805,53.8005 L93.4805,53.8765 L93.4805,53.9096 L93.4805,53.9625 L93.4805,54.0418 L93.5631,54.0418 C93.6557,54.0418 93.7583,54.0418 93.8641,54.0418 C95.0216,53.9931 96.1532,54.3935 97.0223,55.1594 C97.5452,55.6313 97.939,56.2287 98.1666,56.8952 C97.846,57.5346 97.3666,58.0811 96.7743,58.4822 C96.1254,58.9285 95.3527,59.1598 94.5652,59.1435 C94.0993,59.1404 93.6358,59.0771 93.1861,58.955 L93.1035,58.9385 L93.0803,59.0146 C93.0668,59.0344 93.0578,59.057 93.0539,59.0807 L93.0175,59.16 L93.0902,59.1898 C94.3403,59.8147 95.1737,60.7405 95.4382,61.8117 C95.6304,62.4796 95.6361,63.1874 95.4548,63.8583 L95.4548,63.8583 C94.8596,64.2119 94.1826,64.4044 93.4904,64.4171 L93.4011,64.4171 C92.6372,64.4171 91.483,64.1592 90.3024,62.9259 L90.2429,62.8664 L90.1767,62.916 L90.1172,62.9623 L90.0478,63.0152 L90.0974,63.0879 C90.7819,64.2121 91.0101,65.4024 90.7323,66.4372 C90.5701,67.0755 90.2545,67.6645 89.8129,68.1532 L89.7237,68.1532 C89.106,68.1472 88.4977,68.0014 87.9445,67.7267 C86.9015,67.1646 86.1221,66.2143 85.775,65.0816 L85.7486,65.0089 L85.6692,65.0288 L85.6328,65.0288 L85.5832,65.0288 L85.5072,65.0288 L85.5072,65.1081 C85.6942,66.2481 85.4271,67.4161 84.7631,68.3615 C84.3813,68.8675 83.8818,69.2727 83.308,69.5419 C82.7199,69.2961 82.1985,68.9142 81.7867,68.4277 C81.0565,67.5372 80.7007,66.3979 80.7946,65.2503 L80.7946,65.1709 L80.7152,65.1709 L80.616,65.1709 L80.5466,65.1511 L80.5168,65.2271 C80.2578,66.3076 79.5937,67.2473 78.6616,67.8523 C77.9511,68.2892 77.1547,68.5678 76.3268,68.669 L76.3268,58.0888 L76.5947,58.0888 C76.7703,58.0899 76.9458,58.081 77.1205,58.0623 C77.9969,59.8742 80.0803,60.9124 82.8549,60.9124 C86.0198,60.8661 89.2144,59.1104 89.2144,55.8372 C89.2144,53.6286 88.4174,52.0481 87.7791,50.7818 C87.3128,49.8593 86.9127,49.0592 86.9127,48.2426 C86.9127,45.8455 88.7249,44.5031 90.8216,42.9524 C92.8488,41.4481 95.1373,39.7519 96.1129,36.7531 L96.136,36.7531 Z M88.6786,38.0194 C87.703,38.0194 86.1057,37.5532 85.5468,37.1069 C85.2654,36.3478 84.7618,35.6911 84.1017,35.2223 C84.2258,35.2091 84.3505,35.2024 84.4754,35.2024 C85.3914,35.2024 86.2413,35.5165 87.1409,35.8438 C88.0655,36.2407 89.0529,36.4712 90.0577,36.5249 C91.0732,36.5074 92.0504,36.1341 92.8191,35.4702 C92.5843,36.1745 91.7013,38.0194 88.6786,38.0194 L88.6786,38.0194 Z M86.7738,28.6361 C87.1233,28.5873 87.4758,28.564 87.8287,28.5666 C89.6608,28.5666 91.612,29.3535 91.612,31.582 C91.612,32.6334 91.1655,34.0882 89.8956,34.7296 C89.6608,34.4486 88.5331,33.2781 86.3637,33.2781 C84.9772,33.3252 83.6226,33.7063 82.4151,34.3891 C81.8333,34.2163 81.2295,34.1294 80.6227,34.1312 C80.4904,34.1312 80.3647,34.1312 80.239,34.1477 C82.511,33.0864 85.904,31.1356 86.7738,28.6361 L86.7738,28.6361 Z M88.543,32.5408112 C88.6693,32.5408112 88.7927,32.5034 88.8976,32.4333 C89.0026,32.3632 89.0844,32.2635 89.1327,32.1469 C89.181,32.0303 89.1937,31.902 89.169,31.7782 C89.1444,31.6544 89.0836,31.5407 88.9944,31.4515 C88.9051,31.3622 88.7914,31.3015 88.6676,31.2768 C88.5437,31.2522 88.4154,31.2649 88.2988,31.3132 C88.1822,31.3615 88.0825,31.4432 88.0123,31.5482 C87.9422,31.6531 87.9047888,31.7765 87.9047888,31.9027 C87.9043,31.9866 87.9206,32.0698 87.9525,32.1474 C87.9844,32.225 88.0314,32.2956 88.0907,32.3549 C88.1501,32.4142 88.2206,32.4612 88.2983,32.4931 C88.3759,32.5251 88.4591,32.5413 88.543,32.5408112 Z M76.2342,25.8455 C74.6733,25.8092 69.4283,25.7529 65.3771,22.3772 C65.7707,22.3276 66.1311,22.2813 66.4519,22.2185 C66.991,22.1094 67.745,21.9308 68.2014,21.5572 C70.6425,23.3936 73.3518,24.8434 76.2342,25.8554 L76.2342,25.8455 Z M62.5,19.5635 C65.4234,19.5635 67.9732,19.9537 67.9732,20.7273 C67.9732,21.501 65.4234,21.8912 62.5,21.8912 C59.5766,21.8912 57.0235,21.501 57.0235,20.7273 C57.0235,19.9537 59.5766,19.5635 62.5,19.5635 Z M58.5315,22.2251 C58.8622,22.2879 59.2095,22.3342 59.6063,22.3838 C55.5486,25.7596 50.3036,25.8158 48.7427,25.8521 C51.6286,24.8413 54.3414,23.3915 56.7854,21.5539 C57.2319,21.9408 57.9892,22.1193 58.5315,22.2152 L58.5315,22.2251 Z M37.1448,28.5732 C37.501,28.5704 37.8569,28.5936 38.2097,28.6427 C39.0861,31.1422 42.4758,33.093 44.7411,34.1543 C44.6121,34.1543 44.4865,34.1378 44.3575,34.1378 C43.7518,34.1363 43.149,34.2232 42.5684,34.3957 C41.3607,33.7133 40.0062,33.3322 38.6198,33.2847 C36.4503,33.2847 35.3127,34.4552 35.0845,34.7362 C33.8146,34.0948 33.3649,32.64 33.3649,31.5886 C33.3649,29.3601 35.3193,28.5732 37.1448,28.5732 L37.1448,28.5732 Z M36.4338,32.5408 C36.5603,32.5421 36.6844,32.5058 36.7902,32.4365 C36.896,32.3672 36.9789,32.268 37.0282,32.1515 C37.0775,32.035 37.0911,31.9065 37.0672,31.7823 C37.0433,31.6581 36.9831,31.5438 36.8941,31.4539 C36.8051,31.364 36.6914,31.3025 36.5674,31.2774 C36.4434,31.2522 36.3147,31.2645 36.1977,31.3126 C36.0807,31.3607 35.9806,31.4424 35.9102,31.5475 C35.8398,31.6526 35.8021999,31.7762 35.8021999,31.9027 C35.8021,32.0708 35.8685,32.2321 35.9868,32.3516 C36.105,32.4711 36.2657,32.5391 36.4338,32.5408 L36.4338,32.5408 Z M37.8393,35.8471 C38.7388,35.5165 39.5987,35.2057 40.5081,35.2057 C40.6318,35.2057 40.7555,35.2124 40.8785,35.2256 C40.2212,35.6965 39.7192,36.3526 39.4366,37.1102 C38.8744,37.5565 37.2771,38.0227 36.2949,38.0227 C33.2723,38.0227 32.3959,36.1778 32.1677,35.4735 C32.9336,36.1377 33.9088,36.5111 34.9225,36.5283 C35.9273,36.4749 36.9148,36.2443 37.8393,35.8471 L37.8393,35.8471 Z M28.8739,36.7531 C29.866,39.7519 32.1446,41.4481 34.1652,42.9524 C36.2718,44.5097 38.084,45.8521 38.084,48.2426 C38.084,49.0592 37.6806,49.8593 37.211,50.7818 C36.5727,52.0481 35.7823,53.6286 35.7823,55.8372 C35.7823,59.1104 38.9769,60.8661 42.1451,60.9124 C44.9131,60.9124 46.9932,59.8742 47.8762,58.0623 C48.0449,58.0882 48.2149,58.1048 48.3855,58.1119 L48.6467,58.1119 L48.6467,68.669 C47.8258,68.5646 47.0365,68.2862 46.3318,67.8523 C45.3975,67.2483 44.7309,66.3085 44.4699,65.2271 L44.4534,65.1511 L44.374,65.1709 L44.2748,65.1709 L44.2021,65.1709 L44.2021,65.2503 C44.2649,66.8638 43.706,67.8656 43.21,68.4277 C42.8035,68.9095 42.2875,69.287 41.7052,69.5287 C41.1314,69.2594 40.6319,68.8543 40.2501,68.3483 C39.571,67.4191 39.2858,66.2595 39.4565,65.1213 L39.4565,65.042 L39.3837,65.042 L39.3407,65.042 L39.2944,65.042 L39.2216,65.0221 L39.1919,65.0949 C38.8438,66.2279 38.0631,67.1782 37.0192,67.7399 C36.4671,68.0147 35.8599,68.1606 35.2433,68.1665 L35.1573,68.1665 C34.7157,67.6778 34.4002,67.0887 34.2379,66.4505 C34.1062,65.874 34.0943,65.2766 34.2029,64.6954 C34.3116,64.1141 34.5385,63.5614 34.8696,63.0714 L34.9126,62.9987 L34.8464,62.9458 L34.7869,62.8995 L34.7274,62.8499 L34.6645,62.9094 C33.4839,64.1427 32.3231,64.4005 31.5625,64.4005 L31.4732,64.4005 C30.7744,64.3903 30.0904,64.1977 29.489,63.8418 L29.489,63.8418 C29.3047,63.172 29.3047,62.4649 29.489,61.7952 C29.7602,60.7239 30.5969,59.8114 31.837,59.1733 L31.9131,59.1435 L31.8899,59.0641 C31.8899,59.0443 31.8701,59.0145 31.8601,58.998 L31.8304,58.922 L31.751,58.9385 C31.3002,59.0601 30.8356,59.1235 30.3687,59.127 C29.5814,59.1415 28.8093,58.9104 28.1596,58.4657 C27.5668,58.066 27.0881,57.5191 26.7706,56.8787 C26.9949,56.2114 27.3879,55.6135 27.9115,55.1428 C28.781,54.3753 29.9143,53.9747 31.0731,54.0253 C31.1756,54.0253 31.2748,54.0253 31.3773,54.0253 L31.46,54.0253 L31.46,53.946 L31.46,53.8931 L31.46,53.86 L31.46,53.784 L31.3806,53.7641 C30.1144,53.4777 29.0133,52.7014 28.3183,51.6051 C27.9564,51.0019 27.7402,50.3226 27.6866,49.6213 C28.1682,49.1215 28.7543,48.7342 29.403,48.4872 C29.9053,48.2997 30.4377,48.2056 30.9739,48.2095 C31.7242,48.217 32.4654,48.3756 33.1532,48.6757 L33.2227,48.7021 L33.2656,48.6294 C33.2855,48.6029 33.2954,48.5732 33.3119,48.5467 L33.3616,48.4608 L33.2789,48.4244 C31.6176,47.6121 30.127,46.4898 28.8871,45.1181 C27.5643,43.6236 26.9029,42.0201 26.9029,40.4892 C26.9029,38.0492 28.4208,36.9713 28.8144,36.7366 L28.8739,36.7531 Z M19.6141,31.5225 C19.9118,30.147 20.5269,29.2874 21.0064,29.0229 C22.434,31.6971 24.2631,34.1369 26.43,36.2571 C26.7607,36.5878 27.1211,36.9184 27.4585,37.2854 C27.0204,37.8386 26.7108,38.4824 26.5523,39.17 C26.4796,39.1039 26.3936,39.0344 26.3142,38.9617 C24.9321,37.7267 23.6637,36.3701 22.5243,34.9082 L22.3325,34.6668 L22.3623,34.971 C22.4714,36.1844 23.0006,38.0128 24.8591,39.8974 C25.3458,40.3881 25.8785,40.831 26.4498,41.2199 C26.6139,42.4135 27.0681,43.5488 27.7726,44.5262 C25.7372,43.1757 23.8748,41.5812 22.2267,39.7784 C19.0255,36.2373 19.3363,32.8351 19.6174,31.5456 L19.6141,31.5225 Z M17.3488,41.4977 C17.9511,41.362 18.5669,41.2954 19.1842,41.2993 C20.9129,41.3018 22.6078,41.7775 24.0853,42.6747 C26.4434,44.1152 28.6427,45.8009 30.6465,47.7036 C30.1745,47.736 29.7099,47.8373 29.2674,48.0045 C29.155,48.0442 29.0425,48.1037 28.9169,48.1533 C27.6518,47.1249 26.3182,46.1837 24.9253,45.3363 C24.077,44.8157 23.134,44.4684 22.1506,44.3146 L21.9357,44.2783 L22.0713,44.4568 C22.6606,45.2546 23.4011,45.9286 24.2506,46.4406 C25.5395,47.217 26.876,47.9116 28.2522,48.5203 C27.9138,48.739 27.6038,48.9989 27.3295,49.294 L27.2204,49.4229 L27.1873,49.4494 L27.1873,49.489 C27.1906,49.5753 27.1983,49.6614 27.2104,49.7469 C25.2345,48.9653 23.3265,48.022 21.5058,46.9266 C19.4843,45.7034 17.9996,43.762 17.3488,41.491 L17.3488,41.4977 Z M16.3931,50.2859 C17.7676,49.4071 19.3683,48.9475 20.9998,48.9633 C21.5859,48.9642 22.1705,49.0206 22.7459,49.132 C24.2928,49.4324 25.8158,49.8445 27.303,50.3652 C27.4212,50.9057 27.6255,51.4237 27.9082,51.8993 C27.9788,52.0222 28.0572,52.1404 28.143,52.2531 C26.8128,51.8015 25.4539,51.4392 24.0753,51.1686 C23.6081,51.0764 23.1329,51.031 22.6566,51.0331 C22.2127,51.0307 21.7697,51.0717 21.3338,51.1554 L21.1155,51.1951 L21.3007,51.3141 C22.0824,51.8154 22.9539,52.1601 23.867,52.3292 C25.4529,52.6273 27.0593,52.8031 28.6721,52.8549 C28.9831,53.161 29.3308,53.4276 29.7073,53.6484 C29.1518,53.7713 28.6238,53.9954 28.1496,54.3097 C26.0418,54.3078 23.9386,54.113 21.8662,53.7277 C19.6634,53.3361 17.7001,52.1014 16.3931,50.2859 L16.3931,50.2859 Z M22.6533,59.6923 C20.5853,59.706 18.576,59.0052 16.9652,57.7086 C18.5375,56.0314 20.6896,55.0159 22.984,54.8684 C23.7446,54.8122 24.5317,54.7891 25.3221,54.7891 C26.0232,54.7891 26.7408,54.8089 27.4684,54.8552 C26.9753,55.3229 26.5943,55.8959 26.3539,56.5315 C25.6925,56.5315 25.1005,56.5646 24.5185,56.6042 C23.6019,56.6626 22.7045,56.8925 21.8728,57.282 L21.6579,57.3845 L21.8861,57.4507 C22.5887,57.6683 23.3199,57.7798 24.0555,57.7813 C24.2374,57.7813 24.4193,57.7813 24.6012,57.7648 C25.2328,57.7152 25.8876,57.6523 26.5457,57.5664 C26.5854,57.6193 26.6218,57.6722 26.6648,57.735 C26.9946,58.2021 27.4043,58.6073 27.8751,58.9319 C27.9181,58.9683 27.9677,58.998 28.024,59.0377 C26.4718,59.3625 24.8996,59.5834 23.318,59.699 C23.0998,59.699 22.8716,59.7188 22.6566,59.7188 L22.6533,59.6923 Z M23.0733,65.7363 C22.1704,65.7437 21.2737,65.5857 20.4277,65.2701 C21.2568,63.2662 22.8364,61.6657 24.8294,60.8099 C26.1074,60.2408 27.4234,59.7613 28.7681,59.3749 C29.2357,59.5472 29.7283,59.6421 30.2265,59.656 C29.8264,60.0141 29.4996,60.4464 29.2641,60.9289 C28.2957,61.2408 27.3442,61.6028 26.4134,62.0134 C25.6374,62.3589 24.9286,62.8392 24.3201,63.4318 L24.1481,63.6004 L24.3928,63.6004 C25.2416,63.534 26.0722,63.3191 26.8467,62.9656 C27.5279,62.6581 28.2323,62.3043 28.9433,61.9076 C28.807,62.5351 28.807,63.1845 28.9433,63.812 C28.1926,64.2319 27.4287,64.6188 26.6879,64.9527 C25.5563,65.4735 24.3257,65.7442 23.0799,65.7462 L23.0733,65.7363 Z M26.1654,70.4081 C26.1654,69.9188 26.2117,67.2671 28.6424,64.8502 C28.8044,64.6882 28.9731,64.5196 29.1649,64.3476 C29.7305,64.6499 30.3493,64.8397 30.9871,64.9064 C30.6928,65.1643 30.4315,65.4123 30.1769,65.6669 C29.5646,66.2699 29.065,66.9776 28.7019,67.7565 L28.6093,67.9747 L28.8243,67.8788 C29.6089,67.5264 30.3202,67.0295 30.9209,66.4141 C31.4038,65.9413 31.8833,65.4222 32.3628,64.8469 C32.846,64.7513 33.3098,64.5758 33.7352,64.3278 C33.595,64.8376 33.5469,65.3683 33.593,65.895 C33.0096,66.6164 32.3881,67.3062 31.7312,67.9615 C29.446,70.2329 26.9889,70.4081 26.2845,70.4081 L26.1654,70.4081 Z M25.8545,80.8594 C25.7189,80.3734 25.0509,77.5035 27.2468,73.8136 C27.9667,72.6009 28.7608,71.4338 29.6246,70.3189 C30.5474,69.8794 31.3929,69.2932 32.128,68.5831 C31.9672,69.0879 31.8565,69.6072 31.7973,70.1337 C31.0997,71.0484 30.4549,72.0022 29.866,72.9904 C29.3417,73.8539 28.963,74.7978 28.7449,75.7842 L28.6953,76.0256 L28.897,75.8702 C29.6805,75.2215 30.3414,74.4376 30.8482,73.5558 C31.1789,73.0168 31.4732,72.4713 31.7642,71.9026 C31.8046,72.4817 31.9363,73.0508 32.1545,73.5888 L32.3264,73.9889 L32.3562,74.0616 L32.429,74.0418 L32.8556,73.9492 C32.4521,74.746 32.0057,75.5495 31.5327,76.3496 C29.3369,80.0461 26.3605,80.747 25.8512,80.8462 L25.8545,80.8594 Z M35.6302,68.6591 C36.2051,68.6029 36.7651,68.4439 37.2837,68.1896 C37.4849,68.0946 37.6784,67.9841 37.8624,67.859 C37.6343,68.3748 37.416,68.8509 37.1812,69.3204 C35.6566,72.3126 33.2524,73.1259 32.7927,73.2483 C32.634,72.8085 31.8734,70.3883 33.4045,67.3961 C33.5137,67.1845 33.636,66.9596 33.7617,66.7348 C33.9547,67.3878 34.294,67.9882 34.7538,68.4905 C34.5028,69.0522 34.3325,69.6466 34.2478,70.2561 L34.2115,70.5106 L34.3967,70.3354 C34.8972,69.8507 35.322,69.2934 35.6566,68.6822 L35.6302,68.6591 Z M33.1301,75.2122 C33.3119,74.6931 33.5137,74.1807 33.7286,73.6616 C34.6318,73.254 35.4506,72.6809 36.1428,71.972 C35.8418,72.6333 35.5674,73.3342 35.3259,74.0186 C35.0062,74.8904 34.8406,75.8112 34.8365,76.7397 L34.8365,76.9877 L34.9919,76.7926 C35.5828,76.0729 36.0378,75.2517 36.3346,74.3691 C36.6849,73.3834 36.9841,72.3802 37.2308,71.3637 C37.2896,72.4229 37.5821,73.456 38.0873,74.389 C37.8757,75.1494 37.6376,75.9264 37.3598,76.7034 C36.113,80.2643 33.6691,81.3984 33.2227,81.5868 C33.0011,81.1735 31.88,78.7864 33.1334,75.2255 L33.1301,75.2122 Z M35.2201,92.6398 C36.5099,93.2449 37.3267,92.577 37.578,91.8794 C37.6658,91.4429 37.6658,90.9933 37.578,90.5569 C37.836,90.2064 38.4147,89.6245 39.6879,88.9302 C40.2533,88.6222 40.9011,88.4996 41.5399,88.5797 C41.4126,89.3581 41.4578,90.1549 41.6722,90.9139 C41.1447,91.2589 40.6944,91.7092 40.3494,92.2365 C40.0923,92.8226 39.9026,93.436 39.7839,94.0649 C38.5073,95.1361 35.7823,95.0799 35.23,92.6299 L35.2201,92.6398 Z M47.2842,87.2869 C47.5373,86.4681 47.8342,85.6635 48.1738,84.8766 C48.4188,84.862 48.6627,84.8345 48.9047,84.794 C49.014,85.4441 49.25,86.0664 49.5992,86.6256 C49.7813,86.8782 50.0131,87.0908 50.2804,87.2505 C50.0837,87.7181 49.8561,88.172 49.5992,88.6094 C49.2183,89.2753 48.701,89.8533 48.0812,90.3056 C47.7075,89.7237 46.9535,88.3582 47.2842,87.2869 Z M58.5282,97.5365 C57.1492,98.7202 56.2133,98.859 56.2133,98.859 L56.1505,98.9219 C55.6074,98.9409 55.0754,99.0798 54.5923,99.3284 C54.1092,99.577 53.687,99.9293 53.356,100.36 C53.1047,98.0457 55.0856,97.1827 56.372,96.2933 C56.6358,96.121 56.8616,95.8966 57.0356,95.634 C57.2096,95.3713 57.3282,95.0759 57.384,94.7658 C57.6287,94.5939 58.0884,94.2633 58.5282,93.8996 C58.7934,93.6668 59.0329,93.4064 59.2425,93.1226 C59.4209,93.8084 59.5142,94.5135 59.5203,95.2221 C59.4641,96.0751 59.2293,96.9348 58.5282,97.5365 L58.5282,97.5365 Z M68.1749,98.9219 L68.1154,98.859 C68.1154,98.859 67.1795,98.7202 65.8004,97.5365 C65.0993,96.9348 64.8645,96.0751 64.8083,95.2221 C64.8161,94.5136 64.9094,93.8087 65.0861,93.1226 C65.2957,93.4064 65.5352,93.6668 65.8004,93.8996 C66.4354,94.422 67.1233,94.8915 67.1233,94.8915 L67.3151,94.5046 C67.3398,94.8616 67.4456,95.2082 67.6243,95.5181 C67.8031,95.8281 68.0502,96.0932 68.3469,96.2933 C69.6366,97.1827 71.6142,98.0391 71.3629,100.36 C70.9925,99.8748 70.5072,99.4893 69.9507,99.2382 C69.3942,98.9872 68.7839,98.8784 68.1749,98.9219 L68.1749,98.9219 Z M75.0569,88.6094 C74.8325,88.2246 74.6305,87.8272 74.4517,87.4192 C75.4438,87.0059 75.9762,85.9842 76.2408,84.8601 L76.4822,84.8766 C76.8203,85.6641 77.1173,86.4686 77.3718,87.2869 C77.7025,88.3582 76.9485,89.7237 76.5748,90.3056 C75.9551,89.8533 75.4378,89.2753 75.0569,88.6094 L75.0569,88.6094 Z M84.859,93.9921 C84.7441,93.3914 84.561,92.8057 84.3133,92.2464 C83.9683,91.7191 83.5179,91.2688 82.9905,90.9239 C83.2049,90.1648 83.2501,89.368 83.1228,88.5896 C83.7616,88.5095 84.4094,88.6321 84.9747,88.9401 C86.2976,89.6675 86.8796,90.2626 87.121,90.6164 C87.0405,91.0343 87.0473,91.4643 87.1409,91.8794 C87.3922,92.577 88.209,93.2449 89.4988,92.6398 C88.9333,95.1493 86.0958,95.146 84.8689,93.9921 L84.859,93.9921 Z M82.9442,71.8398 C83.0732,72.6763 83.2385,73.5491 83.4535,74.422 C83.6469,75.274 83.9931,76.0839 84.4754,76.8125 L84.6143,77.0109 L84.6374,76.7695 C84.7283,75.9044 84.6645,75.03 84.4489,74.1873 C84.4026,73.9955 84.3629,73.807 84.3067,73.6153 C84.8029,74.1088 85.3758,74.5186 86.0032,74.8287 L86.367,74.9841 L86.3935,75.0734 C87.2401,78.5681 85.8676,80.7503 85.5998,81.1239 C85.193,80.9123 82.9773,79.5997 82.1274,76.0917 C81.9554,75.3974 81.7966,74.6997 81.6908,74.0087 C82.2156,73.2512 82.5781,72.3935 82.7557,71.4893 C82.8152,71.605 82.8781,71.7241 82.9442,71.8398 L82.9442,71.8398 Z M77.4876,69.1319 C77.6636,70.2416 78.0521,71.307 78.6318,72.2696 C78.1746,73.4322 77.3842,74.434 76.3599,75.1494 L76.3599,69.198 C76.7337,69.154 77.1031,69.0788 77.4644,68.9732 C77.4644,69.0261 77.4809,69.0823 77.4876,69.1385 L77.4876,69.1319 Z M76.3599,76.0057 C76.8591,75.7082 77.32,75.3507 77.7323,74.9411 C77.8911,77.0511 78.2883,79.1363 78.9162,81.157 C78.0243,80.7819 77.1686,80.3259 76.3599,79.7948 L76.3599,76.0057 L76.3599,76.0057 Z M86.9061,85.9677 C87.5972,87.2505 87.3955,88.7549 87.2202,89.9849 C87.078,89.6939 86.6944,89.1947 85.6527,88.6094 C84.0653,87.7167 83.1922,87.8953 83.0368,87.9482 C82.9467,87.4997 82.8263,87.0578 82.6763,86.6256 C82.3456,85.6338 81.3866,84.7642 80.8178,84.3112 C81.5327,84.0127 82.2009,83.613 82.802,83.1243 C85.0276,83.5309 86.0231,84.4699 86.8994,85.9644 L86.9061,85.9677 Z M76.3599,84.1624 L76.3599,80.6511 L76.4028,80.6776 L78.0894,80.9718 C79.0816,82.3836 80.8112,82.8366 82.802,82.1125 C82.4713,82.6514 81.585,83.5442 79.3726,83.9839 C77.8745,84.2815 76.9419,84.2749 76.3599,84.1657 L76.3599,84.1624 Z M76.4095,80.7305 C76.4095,80.8032 76.4359,80.9454 76.4525,81.1438 C76.4359,80.9421 76.4194,80.8131 76.4095,80.7305 Z M76.4558,83.5971 C76.4921,83.2234 76.5054,82.8564 76.5054,82.5159 C76.5054,82.8465 76.4888,83.2234 76.4558,83.5971 Z M76.6277,57.3812 L76.3599,57.3812 L76.3599,54.7362 L72.226,54.7362 C72.005,54.2177 71.8927,53.6594 71.896025,53.0958 C71.8995,52.5322 72.0186,51.9754 72.2459,51.4596 C73.3041,53.3343 74.7956,54.2832 76.684,54.2832 C78.066,54.2612 79.3827,53.6915 80.3449,52.6995 C80.5428,53.1809 80.6209,53.7032 80.5726,54.2215 C80.5242,54.7398 80.3507,55.2386 80.0671,55.6752 C79.6734,56.2148 79.1551,56.6513 78.5562,56.9472 C77.9573,57.2431 77.2956,57.3898 76.6277,57.3746 L76.6277,57.3812 Z M80.6359,34.7263 C81.319,34.703 81.9995,34.8223 82.6338,35.0768 C83.2682,35.3313 83.8424,35.7153 84.3199,36.2042 C84.6648,36.5921 84.9261,37.0467 85.0877,37.5399 C85.2493,38.033 85.3076,38.5541 85.2591,39.0708 C84.3885,38.118 83.3245,37.3618 82.1384,36.8527 C80.9522,36.3435 79.6711,36.0932 78.3805,36.1183 C78.0795,36.1183 77.772,36.1183 77.471,36.1546 C78.182,35.1627 79.1708,34.7263 80.6359,34.7263 L80.6359,34.7263 Z M76.8162,36.5812 L76.8162,36.6605 C76.8057,37.6611 76.5722,38.6467 76.1329,39.5458 C75.6936,40.4448 75.0594,41.2347 74.2764,41.858 L74.2103,41.9076 L74.2103,41.8349 C74.0901,41.2271 74.0259,40.6095 74.0185,39.99 C74.0185,38.4195 76.1085,37.0143 76.7468,36.6241 L76.8228,36.5812 L76.8162,36.5812 Z M69.3754,40.0296 L69.4051,40.0859 C70.0024,41.0353 70.3378,42.1258 70.3774,43.2467 C70.3774,44.2683 69.8152,45.376 68.7239,46.553 L68.6809,46.5927 L68.6445,46.5497 C67.5466,44.9528 67.1894,44.2121 67.1894,43.4814 C67.1894,42.1192 67.993,41.3753 68.6974,40.7207 C68.9256,40.5024 69.1439,40.2975 69.3357,40.0825 L69.3754,40.033 L69.3754,40.0296 Z M65.2184,38.8394 L65.2449,38.9253 C65.3643,39.3345 65.5402,39.7251 65.7674,40.0859 C66.1576,40.7802 66.6074,41.5737 66.6074,42.6945 C66.6074,44.275 65.1985,45.8521 64.762,46.2951 L64.7323,46.3282 L64.7091,46.2951 C63.5582,45.1412 62.9994,44.1824 62.9994,43.3525 C62.9994,41.6993 64.0874,40.185 65.1589,38.9055 L65.2184,38.8394 Z M62.4735,44.7213 L62.5132,44.6717 L62.5496,44.7213 C62.6521,44.8734 62.7579,45.0222 62.8638,45.171 C63.5913,46.1893 64.3453,47.244 64.3453,48.9369 C64.3453,49.8792 63.836,50.6396 63.2904,51.4398 C63.0143,51.8216 62.7677,52.2239 62.5529,52.6433 L62.5132,52.7292 L62.4702,52.6433 C62.2528,52.2268 62.0087,51.8248 61.7394,51.4398 C61.1904,50.6396 60.6745,49.8792 60.6745,48.9369 C60.6745,47.244 61.4252,46.1893 62.1561,45.1743 C62.2619,45.0222 62.3743,44.8734 62.4868,44.7213 L62.4735,44.7213 Z M59.7717,38.9353 L59.7915,38.8493 L59.8477,38.9154 C60.9192,40.195 62.0072,41.7192 62.0072,43.3624 C62.0072,44.1923 61.4517,45.1511 60.3041,46.305 L60.2743,46.3381 L60.2446,46.305 C59.8114,45.862 58.4092,44.2849 58.4092,42.7045 C58.4387,41.7748 58.7261,40.8716 59.2392,40.0958 C59.464,39.7324 59.6429,39.3426 59.7717,38.9353 L59.7717,38.9353 Z M55.6412,40.0396 L55.6775,40.0892 C55.8786,40.3133 56.0916,40.5263 56.3158,40.7273 C57.0169,41.3885 57.8139,42.1259 57.8139,43.4881 C57.8139,44.2188 57.4634,44.9594 56.3588,46.5563 L56.3224,46.5993 L56.2893,46.5596 C55.1914,45.3859 54.6358,44.2783 54.6358,43.2533 C54.6741,42.1327 55.0084,41.0421 55.6048,40.0925 L55.6412,40.0363 L55.6412,40.0396 Z M39.7673,39.0807 C39.7193,38.5646 39.7773,38.0441 39.9376,37.5512 C40.098,37.0583 40.3574,36.6033 40.6999,36.2142 C41.178,35.7251 41.7529,35.3411 42.3878,35.0866 C43.0227,34.8322 43.7037,34.7128 44.3873,34.7362 C45.8523,34.7362 46.8378,35.1793 47.5488,36.1646 C47.2545,36.1414 46.9469,36.1282 46.6493,36.1282 C45.3582,36.1028 44.0764,36.353 42.8897,36.8622 C41.703,37.3713 40.6385,38.1277 39.7673,39.0807 L39.7673,39.0807 Z M50.75,41.868 C49.9666,41.2451 49.332,40.4553 48.8926,39.5562 C48.4532,38.657 48.2201,37.6711 48.2102,36.6704 L48.2102,36.5911 L48.283,36.6341 C48.9179,37.0242 51.008,38.4294 51.008,39.9999 C50.999,40.619 50.9371,41.2363 50.8228,41.8448 L50.8228,41.9176 L50.76,41.868 L50.75,41.868 Z M60.3769,50.6396 L60.4099,50.6925 C60.5158,50.8678 60.6613,51.086 60.8167,51.3141 C61.4054,52.1242 62.1957,53.245 62.2321,54.7428 L58.5547,54.7428 C58.5136,54.5058 58.4915,54.2658 58.4885,54.0253 C58.4885,52.7887 59.8907,51.1521 60.3206,50.6793 L60.3636,50.6363 L60.3769,50.6396 Z M58.3265,45.0189 L58.3596,45.0718 C58.5646,45.4024 58.7862,45.7066 58.9978,45.9909 C59.5997,46.8076 60.1619,47.5747 60.1619,48.798 C60.1619,49.8197 59.6262,50.5437 59.054,51.3174 C58.7532,51.7075 58.477,52.1161 58.2273,52.5408 L58.1876,52.6135 L58.1512,52.5408 C57.9726,52.2101 57.7941,51.8993 57.6254,51.615 C57.1029,50.7421 56.6333,49.9916 56.6333,48.7881 C56.6333,47.3697 57.2947,46.2753 58.2868,45.0685 L58.3232,45.0189 L58.3265,45.0189 Z M56.3224,50.805 L56.3489,50.8479 C57.126,52.0184 57.933,53.2285 57.933,54.6767 L57.933,54.7362 L53.6768,54.7362 C53.9116,53.5062 54.8177,52.1638 56.2662,50.8512 L56.3125,50.8149 L56.3224,50.805 Z M56.0546,48.6228 C56.0546,49.9023 55.489,50.5834 54.8409,51.367 C54.5028,51.7559 54.1985,52.1729 53.9314,52.6135 L53.8785,52.7094 L53.8521,52.597 C53.7135,52.0983 53.54,51.6099 53.3328,51.1356 C53.0021,50.3487 52.6714,49.5386 52.6714,48.7319 C52.6714,47.3135 53.3328,46.5365 54.2324,45.4619 L54.2985,45.376 L54.3812,45.2867 L54.4242,45.2371 L54.4506,45.2933 C54.5531,45.4752 54.6987,45.6868 54.8342,45.8918 C55.3766,46.6919 56.0413,47.6871 56.0413,48.6228 L56.0546,48.6228 Z M52.2448,35.2983 L52.5755,35.543 C53.5247,36.2902 55.1385,37.5268 55.1385,38.7666 C55.0891,39.6672 54.7776,40.5336 54.2423,41.2596 L54.2059,41.296 L54.1728,41.2662 C52.688,40.1024 51.9009,39.0344 51.9009,38.1748 C51.9114,37.7308 51.9589,37.2884 52.0431,36.8523 C52.1437,36.3516 52.1924,35.842 52.1886,35.3314 L52.1886,35.2355 L52.268,35.295 L52.2448,35.2983 Z M68.6974,50.8016 L68.7338,50.838 C70.1856,52.1605 71.0884,53.4831 71.3265,54.7229 L67.0803,54.7229 L67.0803,54.6634 C67.0803,53.2153 67.8839,52.0184 68.661,50.8347 L68.6974,50.7917 L68.6974,50.8016 Z M66.442,54.7329 L62.7778,54.7329 C62.8208,53.2351 63.6112,52.1143 64.1866,51.3042 C64.3486,51.0761 64.4941,50.8579 64.6,50.6826 L64.633,50.6297 L64.6793,50.6727 C65.1026,51.1455 66.5081,52.7821 66.5081,54.0187 C66.5069,54.2593 66.4847,54.4994 66.442,54.7362 L66.442,54.7329 Z M66.6504,45.0718 L66.6768,45.0189 L66.7264,45.0685 C67.7185,46.2753 68.3601,47.3829 68.3601,48.7881 C68.3601,49.9916 67.9103,50.7421 67.3878,51.615 C67.2192,51.8993 67.034,52.1969 66.8587,52.5408 L66.8157,52.6135 L66.776,52.5408 C66.5319,52.1149 66.259,51.7061 65.9592,51.3174 C65.3838,50.5437 64.848,49.8197 64.848,48.798 C64.848,47.5747 65.4069,46.8142 66.0121,45.9909 C66.227,45.7066 66.4486,45.4024 66.6504,45.0718 L66.6504,45.0718 Z M71.6804,51.1323 C71.4743,51.6067 71.3019,52.095 71.1645,52.5937 L71.138,52.7061 L71.0785,52.6102 C70.8147,52.1674 70.5103,51.7501 70.1691,51.3637 C69.5076,50.5801 68.962,49.899 68.962,48.6195 C68.962,47.6838 69.6234,46.6886 70.1591,45.8885 C70.298,45.6835 70.4402,45.4719 70.5461,45.29 L70.5758,45.2338 L70.6188,45.2834 L70.6916,45.3727 L70.7676,45.4586 C71.6705,46.5332 72.3286,47.3102 72.3286,48.7286 C72.3286,49.5353 71.9979,50.3454 71.6671,51.1323 L71.6804,51.1323 Z M73.1057,38.1748 C73.1057,39.0344 72.3286,40.1024 70.8371,41.2662 L70.804,41.296 L70.7809,41.2596 C70.2403,40.5375 69.9271,39.6707 69.8813,38.7699 C69.8813,37.5433 71.4886,36.2935 72.4377,35.5463 C72.5601,35.457 72.6626,35.3743 72.7684,35.3016 L72.8412,35.2421 L72.8412,35.338 C72.8423,35.8484 72.891,36.3575 72.9867,36.8589 C73.0697,37.2951 73.1162,37.7375 73.1256,38.1814 L73.1057,38.1748 Z M67.3845,87.5746 L69.6697,90.1469 C68.4957,90.9735 67.3547,92.663 67.3151,94.174 C66.8966,94.0236 66.4997,93.8191 66.1345,93.5656 C65.8951,93.3671 65.7092,93.1118 65.5936,92.8231 C65.4781,92.5343 65.4367,92.2213 65.473,91.9125 C65.9487,91.3342 66.2878,90.6561 66.4652,89.9287 C66.8157,88.7053 66.5611,87.9449 66.3461,87.5713 L67.3845,87.5746 Z M58.8622,91.9125 C58.8986,92.2213 58.8571,92.5343 58.7416,92.8231 C58.6261,93.1118 58.4402,93.3671 58.2008,93.5656 C57.9592,93.7455 57.6958,93.8944 57.4171,94.0087 C57.2914,92.4282 56.0248,90.7023 54.8144,89.975 L56.7193,87.8358 L56.8119,87.8358 L57.89,87.7829 C57.645,88.4726 57.645,89.2257 57.89,89.9154 C58.0673,90.6429 58.4064,91.321 58.8821,91.8992 L58.8622,91.9125 Z M54.9599,70.3949 C54.7218,70.4237 54.4821,70.438 54.2423,70.4379 C53.6507,70.4579 53.0617,70.3501 52.5155,70.1218 C51.9694,69.8936 51.4789,69.5503 51.0774,69.1154 C48.8353,66.672 49.2255,61.8018 49.2453,61.5935 C49.2489,61.5541 49.2651,61.517 49.2916,61.4877 C49.8172,61.0116 50.5039,60.7528 51.213,60.7636 C51.9138,60.7788 52.5982,60.9784 53.1973,61.3422 C53.2279,61.3598 53.2526,61.3863 53.2679,61.4182 C53.2833,61.45 53.2886,61.4858 53.2832,61.5207 C53.2832,61.5538 52.774,65.0122 53.1642,66.5133 C53.4684,67.6771 54.4572,69.0393 56.2596,69.0393 C56.6584,69.0371 57.0548,68.9781 57.4369,68.8641 C57.556,68.831 57.675,68.7913 57.7941,68.7517 L56.21,67.6804 C56.187,67.6644 56.1682,67.6431 56.155,67.6184 C56.1418,67.5937 56.1346,67.5663 56.1339,67.5383 C56.134,67.5101 56.141,67.4825 56.1542,67.4577 C56.1675,67.4329 56.1866,67.4118 56.21,67.3961 L58.9681,65.485 C57.9925,64.7775 57.4104,64.2782 57.3906,64.2617 C57.3726,64.2459 57.3581,64.2266 57.3478,64.205 C57.3376,64.1834 57.3319,64.1599 57.3311,64.136 C57.3304,64.1123 57.3344,64.0887 57.3429,64.0666 C57.3514,64.0444 57.3643,64.0242 57.3807,64.0071 L57.8404,63.5475 C57.8735,63.5162 57.9172,63.4986 57.9627,63.4979 C58.0013,63.4962 58.0392,63.5092 58.0685,63.5343 C58.0884,63.5343 58.8027,64.0997 59.894,64.8568 L61.2169,63.9377 L56.8218,60.919 L56.4249,61.9109 C56.4122,61.9414 56.3912,61.9677 56.3643,61.987 C56.3375,62.0062 56.3058,62.0177 56.2728,62.02 L56.2728,62.02 C56.2418,62.0199 56.2114,62.0116 56.1847,61.9959 C56.158,61.9802 56.1359,61.9577 56.1207,61.9307 L54.2158,58.4161 C54.1995,58.3886 54.1909,58.3572 54.1909,58.3252 C54.1909,58.2932 54.1995,58.2618 54.2158,58.2343 C54.2321,58.2117 54.2534,58.1934 54.2782,58.1808 C54.3029,58.1681 54.3303,58.1615 54.358,58.1615 L54.3845,58.1615 L58.353,58.7467 C58.3851,58.7511 58.4153,58.7647 58.4399,58.7858 C58.4646,58.8069 58.4826,58.8347 58.4918,58.8658 C58.5019,58.8971 58.5026,58.9307 58.4938,58.9625 C58.485,58.9942 58.467,59.0226 58.4422,59.0443 L57.6452,59.7651 L62.4735,63.0714 L67.3018,59.7651 L66.4982,59.0476 C66.474,59.0256 66.4566,58.9971 66.448,58.9655 C66.4394,58.934 66.44,58.9006 66.4497,58.8693 C66.4594,58.8381 66.4779,58.8103 66.5029,58.7891 C66.5279,58.768 66.5584,58.7544 66.5908,58.75 L70.5427,58.1615 C70.5705,58.1615 70.5979,58.1681 70.6226,58.1808 C70.6473,58.1934 70.6687,58.2117 70.685,58.2343 C70.702,58.2615 70.711,58.293 70.711,58.3252 C70.711,58.3573 70.702,58.3888 70.685,58.4161 L68.7834,61.9307 C68.7679,61.9575 68.7458,61.9798 68.7191,61.9955 C68.6925,62.0111 68.6622,62.0196 68.6313,62.02 C68.5988,62.0175 68.5676,62.0059 68.5413,61.9866 C68.5151,61.9673 68.4947,61.9411 68.4825,61.9109 L68.0856,60.919 L63.6905,63.9377 L65.0134,64.8568 C66.1047,64.1063 66.819,63.5541 66.8388,63.5343 C66.8688,63.5102 66.9062,63.4974 66.9447,63.4979 C66.9674,63.4975 66.9899,63.5017 67.0109,63.5103 C67.0319,63.5188 67.051,63.5315 67.067,63.5475 L67.5267,64.0071 C67.5436,64.0241 67.5569,64.0442 67.566,64.0663 C67.5751,64.0884 67.5797,64.1121 67.5796,64.136 C67.5765,64.184 67.5552,64.2289 67.5201,64.2617 C67.5003,64.2617 66.9182,64.7775 65.9426,65.485 L68.704,67.3862 C68.7278,67.4014 68.7473,67.4225 68.7606,67.4473 C68.7739,67.4722 68.7806,67.5001 68.7801,67.5283 C68.7795,67.5563 68.7722,67.5838 68.759,67.6085 C68.7458,67.6332 68.727,67.6544 68.704,67.6705 L67.1199,68.7418 C67.239,68.7814 67.3614,68.8211 67.4771,68.8542 C67.8593,68.9677 68.2557,69.0267 68.6544,69.0294 C70.4568,69.0294 71.4489,67.6672 71.7498,66.5034 C72.1401,65.0023 71.6374,61.5439 71.6341,61.5108 C71.6284,61.4762 71.6333,61.4407 71.648,61.4089 C71.6627,61.377 71.6867,61.3503 71.7167,61.3323 C72.316,60.9689 73.0003,60.7693 73.701,60.7537 C74.4094,60.7413 75.0956,61.0004 75.6191,61.4778 C75.6479,61.5058 75.6656,61.5434 75.6687,61.5836 C75.6852,61.7919 76.0754,66.6654 73.8366,69.1054 C73.4342,69.5401 72.9431,69.8832 72.3964,70.1114 C71.8498,70.3396 71.2605,70.4476 70.6684,70.428 C70.4286,70.428 70.1889,70.4136 69.9508,70.385 C68.6375,70.2148 67.3489,69.8907 66.1113,69.4196 L63.7005,71.0529 L68.6147,74.3823 C68.6379,74.3981 68.6569,74.4193 68.67,74.4441 C68.6831,74.4689 68.69,74.4965 68.69,74.5245 C68.69,74.5526 68.6831,74.5802 68.67,74.6049 C68.6569,74.6297 68.6379,74.6509 68.6147,74.6667 L63.6839,78.0755 L68.0889,81.1173 L68.4792,80.142 C68.4916,80.1112 68.5125,80.0847 68.5394,80.0654 C68.5663,80.0461 68.5982,80.0348 68.6313,80.0328 L68.6313,80.0328 C68.6623,80.0326 68.6929,80.0408 68.7197,80.0565 C68.7464,80.0722 68.7685,80.0949 68.7834,80.1221 L70.685,83.6334 C70.702,83.6607 70.711,83.6922 70.711,83.7244 C70.711,83.7565 70.702,83.788 70.685,83.8153 C70.6687,83.8378 70.6473,83.8561 70.6226,83.8688 C70.5979,83.8814 70.5705,83.888 70.5427,83.888 L70.5427,83.888 L66.5743,83.3028 C66.542,83.2974 66.5119,83.2831 66.4874,83.2615 C66.4628,83.2398 66.4448,83.2118 66.4354,83.1805 C66.4257,83.1491 66.4253,83.1156 66.4341,83.0839 C66.4429,83.0523 66.4605,83.0238 66.485,83.0019 L67.3018,82.2745 L62.4603,78.9418 L57.6221,82.2878 L58.4356,83.0151 C58.4608,83.0368 58.4792,83.0652 58.4886,83.097 C58.498,83.1288 58.4979,83.1627 58.4885,83.1945 C58.479,83.2263 58.4606,83.2547 58.4354,83.2763 C58.4102,83.2978 58.3792,83.3116 58.3463,83.316 L54.3779,83.9012011 L54.3514,83.9012011 C54.3241,83.9012011 54.2972,83.8947 54.273,83.882 C54.2488,83.8693 54.2281,83.851 54.2125,83.8285 C54.1955,83.8012 54.1865,83.7697 54.1865,83.7376 C54.1865,83.7054 54.1955,83.6739 54.2125,83.6467 L56.1174,80.1353 C56.132,80.1079 56.154,80.085 56.1808,80.0692 C56.2077,80.0535 56.2384,80.0455 56.2695,80.0461 L56.2695,80.0461 C56.3022,80.0478 56.3337,80.0591 56.3602,80.0785 C56.3866,80.0978 56.4068,80.1245 56.4183,80.1552 L56.8086,81.1305 L61.2136,78.0887 L56.2827,74.6799 C56.2602,74.6637 56.2419,74.6423 56.2292,74.6176 C56.2166,74.5929 56.21,74.5655 56.21,74.5377 C56.2098,74.5096 56.2166,74.4818 56.2299,74.457 C56.2432,74.4321 56.2625,74.411 56.286,74.3956 L61.197,71.0661 L58.7895,69.4328 C57.5512,69.9051 56.2612,70.2292 54.9467,70.3982 L54.9599,70.3949 Z M62.4603,64.7742 L61.1375,65.6768 C61.5542,65.9446 61.9973,66.219 62.4603,66.4935 C62.92,66.2223 63.3631,65.9446 63.7831,65.6768 L62.4603,64.7742 Z M66.4288,67.5085 L64.7157,66.3347 C64.342,66.5827 63.9386,66.8406 63.5053,67.1051 C64.1668,67.4721 64.8546,67.8193 65.5326,68.1202 L66.4288,67.5085 L66.4288,67.5085 Z M58.5613,74.5377 L62.4471,77.2225 L66.3329,74.5377 L62.4471,71.8927 L58.5613,74.5377 L58.5613,74.5377 Z M62.4471,70.2098 L64.5537,68.7814 C63.8195,68.4508 63.1085,68.0871 62.4471,67.7201 C61.7857,68.0871 61.078,68.4475 60.3405,68.7814 L62.4471,70.2098 Z M61.3888,67.1051 C60.9589,66.8406 60.5521,66.5827 60.1784,66.3314 L58.4654,67.5085 L59.3649,68.1202 C60.0263,67.8193 60.7241,67.4589 61.3888,67.1051 L61.3888,67.1051 Z M47.529,68.9567 C47.8893,69.0617 48.2576,69.1369 48.6302,69.1815 L48.6302,75.1329 C47.6097,74.4151 46.822,73.4138 46.3649,72.2531 C46.9446,71.2905 47.3331,70.2251 47.5091,69.1154 L47.529,68.9501 L47.529,68.9567 Z M41.6391,87.9416 C41.4837,87.8953 40.6106,87.7134 39.0199,88.6028 C38.0278,89.155 37.6409,89.6278 37.4788,89.9254 C37.3003,88.702 37.125,87.2241 37.8624,85.9578 C38.7057,84.4732 39.6913,83.5409 41.8772,83.1276 C42.478,83.6141 43.1464,84.0106 43.8614,84.3046 C43.2893,84.7543 42.3435,85.6271 41.9996,86.619 C41.8506,87.0512 41.7312,87.4931 41.6424,87.9416 L41.6391,87.9416 Z M46.8808,87.353 C46.5501,87.644 45.138,88.8574 44.6419,89.6013 C44.4418,89.9165 44.2692,90.2484 44.126,90.5932 C43.8707,90.7343 43.5999,90.8452 43.3191,90.9239 C42.9692,91.0047 42.6086,91.0293 42.2509,90.9966 C41.9866,89.771 42.0127,88.5006 42.327,87.2869 C42.5981,86.0867 43.8648,84.9427 44.4005,84.503 C44.5884,84.5601 44.7794,84.6065 44.9726,84.6419 C45.9087,84.8206 46.8604,84.9048 47.8134,84.8931 C47.4552,85.5484 47.1681,86.24 46.9568,86.9563 C46.9238,87.0918 46.9006,87.2241 46.8808,87.353 Z M47.2875,74.9411 C47.694,75.3504 48.1494,75.708 48.6434,76.0057 L48.6434,79.7948 C47.8386,80.3266 46.9861,80.7826 46.097,81.157 C46.7194,79.1346 47.1186,77.0503 47.2875,74.9411 Z M48.6434,82.7209 C48.6699,83.1408 48.7162,83.5871 48.779,84.0434 C48.2764,84.2484 47.2776,84.374 45.3033,83.9905 C43.1405,83.5607 42.2509,82.701 41.8937,82.1588 C41.8953,82.1401 41.8953,82.1213 41.8937,82.1026 C43.8284,82.8201 45.5514,82.4332 46.5468,81.1405 C47.8167,80.8826 48.5839,80.6941 48.6104,80.6842 L48.6501,80.661 L48.6501,82.7308 L48.6434,82.7209 Z M48.6071,80.8065 C48.6071,80.7272 48.6071,80.6743 48.6071,80.6743 C48.6071,80.6743 48.6071,80.7239 48.6071,80.8065 Z M43.3158,74.0021 C43.1901,74.6931 43.0446,75.3908 42.8826,76.0851 C42.0161,79.603 39.7872,80.9057 39.3903,81.1173 C39.1291,80.7437 37.7368,78.5615 38.6098,75.0667 L38.6098,74.9775 L38.9835,74.8221 C39.6107,74.5132 40.1827,74.1032 40.6768,73.6087 C40.6238,73.8004 40.5775,73.9889 40.5312,74.1807 C40.3166,75.0236 40.2539,75.898 40.346,76.7629 L40.3758,77.0043 L40.5114,76.8059 C40.9888,76.0755 41.3326,75.2661 41.5267,74.4154 C41.7416,73.5425 41.9103,72.6697 42.0393,71.8332 C42.1021,71.7174 42.1649,71.5984 42.2311,71.4827 C42.4065,72.387 42.768,73.2449 43.2926,74.0021 L43.3158,74.0021 Z M39.5755,71.4033 L39.721,71.2017 C40.1024,70.673 40.4022,70.0901 40.6106,69.4724 C40.9275,69.7566 41.3071,69.9617 41.7185,70.0709 C41.8587,70.0531 41.9944,70.0093 42.1186,69.9419 C41.1464,72.8482 39.1787,73.936 38.7884,74.1244 C38.5503,73.7376 37.3829,71.6183 38.3023,68.4541 C38.4445,67.9747 38.6032,67.4622 38.7917,66.9663 C38.8612,66.8902 38.9207,66.8009 38.9868,66.7183 C39.1028,67.4301 39.3924,68.1024 39.8301,68.6756 L39.8632,68.7186 C39.8509,68.7498 39.8409,68.7818 39.8335,68.8145 C39.6124,69.573 39.5185,70.3629 39.5557,71.1521 L39.5755,71.3967 L39.5755,71.4033 Z M44.4435,71.3075 L44.5725,71.0628 C44.8937,70.4325 45.1168,69.7568 45.2339,69.0592 C45.2967,68.6525 45.3529,68.226 45.3926,67.7829 C45.596,67.9747 45.8175,68.1464 46.054,68.2954 C46.3144,68.4542 46.5903,68.586 46.8775,68.6888 C46.8775,68.8013 46.8411,68.9005 46.8312,69.0195 C46.2954,72.2167 44.3972,73.5425 44.0334,73.7707 C43.792,73.4764 42.7271,72.0183 42.8197,69.5386 C43.1259,69.3255 43.4027,69.0732 43.6432,68.788 C44.1202,68.2272 44.4508,67.557 44.6055,66.8373 C44.6761,66.9588 44.7557,67.0749 44.8436,67.1845 C44.6772,67.7585 44.5425,68.3413 44.4402,68.9302 C44.3227,69.6297 44.3083,70.3426 44.3972,71.0463 L44.4468,71.3174 L44.4435,71.3075 Z M48.6567,57.3713 L48.3954,57.3713 C47.7283,57.3876 47.0672,57.2415 46.4691,56.9454 C45.8711,56.6493 45.3541,56.2122 44.9627,55.6719 C44.6774,55.2362 44.5022,54.7378 44.4521,54.2195 C44.402,53.7011 44.4785,53.1784 44.675,52.6962 C45.6376,53.6876 46.954,54.2571 48.3359,54.2799 C50.2242,54.2799 51.7157,53.331 52.7773,51.4563 C53.0053,51.9718 53.1248,52.5288 53.1282747,53.0925 C53.1316,53.6562 53.0189,54.2146 52.7971,54.7329 L48.6434,54.7329 L48.6434,57.3779 L48.6567,57.3713 Z M49.371,33.2352 C49.8347,33.5155 50.3126,33.7716 50.8029,34.0022 L51.3453,34.237 C51.4868,35.0748 51.4689,35.9318 51.2924,36.763 C51.2362,37.1763 51.17,37.6094 51.1502,38.0392 C49.9167,37.3052 48.2433,35.4934 47.3173,33.9163 C47.8564,34.194 48.3094,34.3791 48.5178,34.4717 L49.8406,34.9875 L49.4669,33.6451 C49.4404,33.5129 49.3975,33.3872 49.3578,33.255 L49.371,33.2352 Z M51.7058,39.8478 C52.8699,40.9224 54.0009,42.0796 54.0009,43.4153 C54.0009,44.5891 53.528,45.3991 52.8368,46.2422 L52.8004,46.2852 L52.764,46.2455 C52.4003,45.8785 51.3618,44.2254 51.3618,42.7276 C51.3764,42.3068 51.4162,41.8873 51.4809,41.4712 C51.5661,40.9519 51.6114,40.4269 51.6165,39.9007 L51.6165,39.7916 L51.6892,39.8643 L51.7058,39.8478 Z M55.2377,33.5658 C55.5334,34.6831 55.5402,35.8572 55.2575,36.9779 C54.6491,36.3695 53.0716,34.809 51.9505,33.9229 L51.7984,33.1955 C51.7653,33.0698 51.7355,32.9376 51.6959,32.8119 C51.9811,32.9924 52.2835,33.1442 52.5987,33.2649 L53.7198,33.6551 L53.5842,32.6863 C54.0908,33.0564 54.6476,33.3525 55.2377,33.5658 L55.2377,33.5658 Z M56.0711,33.8005 L56.1901,33.8898 C57.4931,34.8652 58.9846,36.2439 58.9846,38.3203 C58.9846,39.2031 58.7002,39.8478 57.7974,40.9653 L57.7974,40.9984 L57.761,40.9753 C57.4303,40.7471 55.8594,39.5403 55.8594,38.1583 C55.8828,37.7323 55.9459,37.3095 56.0479,36.8953 C56.195,36.2916 56.2804,35.6745 56.3026,35.0536 C56.3066,34.6756 56.2496,34.2993 56.1339,33.9394 L56.0876,33.8005 L56.0711,33.8005 Z M69.1769,38.1583 C69.1769,39.5403 67.5962,40.7471 67.282,40.9753 L67.2423,40.9984 L67.2192,40.9653 C66.323,39.8478 66.0385,39.2031 66.0385,38.3203 C66.0385,36.2439 67.5333,34.8652 68.8396,33.8898 L68.9521,33.8005 L68.9058,33.9394 C68.7881,34.2988 68.7321,34.6755 68.7404,35.0536 C68.7599,35.6746 68.8441,36.2918 68.9917,36.8953 C69.0962,37.3089 69.1583,37.7321 69.1769,38.1583 Z M73.3207,32.8119 C73.2843,32.9376 73.2545,33.0698 73.2215,33.1955 L73.066,33.9229 C71.9516,34.809 70.3774,36.3695 69.759,36.9779 C69.4762,35.8581 69.4762,34.6856 69.759,33.5658 C70.3491,33.3525 70.9058,33.0564 71.4125,32.6863 L71.2703,33.6551 L72.3881,33.2649 C72.7052,33.1463 73.009,32.9944 73.2942,32.8119 L73.3207,32.8119 Z M73.6514,42.7309 C73.6514,44.232 72.6229,45.8686 72.2657,46.2654 L72.2293,46.305 L72.193,46.2621 C71.4985,45.419 71.0289,44.6089 71.0289,43.4352 C71.0289,42.1126 72.1599,40.9422 73.3207,39.8676 L73.4,39.7949 L73.4,39.904 C73.4002,40.4304 73.4456,40.9558 73.5356,41.4745 C73.6004,41.8906 73.6401,42.3101 73.6547,42.7309 L73.6514,42.7309 Z M77.7091,33.9295 C76.7898,35.5066 75.1164,37.3185 73.8763,38.0525 C73.8532,37.6245 73.8046,37.1984 73.7308,36.7762 C73.5538,35.9448 73.5403,35.0868 73.6911,34.2502 L74.2268,34.0154 C74.716,33.7847 75.1929,33.5286 75.6555,33.2484 C75.6191,33.3806 75.5794,33.5063 75.5496,33.6385 L75.1726,34.9974 L76.4954,34.4816 C76.7269,34.3891 77.1569,34.2039 77.6992,33.9262 L77.7091,33.9295 Z M80.196,67.1779 C80.2721,67.0688 80.3581,66.953 80.4275,66.8307 C80.5807,67.5516 80.9128,68.2224 81.3932,68.7814 C81.6333,69.0657 81.9089,69.318 82.2133,69.532 C82.3026,72.0117 81.2411,73.4698 81.0063,73.7641 C80.6326,73.5359 78.7409,72.2101 78.2019,69.0129 C78.2019,68.9038 78.1754,68.8046 78.1589,68.6822 C78.4447,68.5787 78.7195,68.4469 78.979,68.2888 C79.2137,68.1371 79.435,67.9657 79.6405,67.7763 C79.6768,68.2194 79.7297,68.6459 79.7959,69.0525 C79.9102,69.7509 80.1334,70.427 80.4573,71.0562 L80.583,71.3009 L80.6227,71.0297 C80.7224,70.3269 80.7101,69.6127 80.5863,68.9137 C80.4835,68.3252 80.35,67.7425 80.1861,67.1679 L80.196,67.1779 Z M85.1566,68.7285 C85.1642,68.7127 85.1743,68.6982 85.1864,68.6855 C85.6261,68.1071 85.9128,67.427 86.0198,66.7084 C86.0826,66.791 86.1487,66.8803 86.2182,66.9563 C86.4067,67.4655 86.5687,67.9648 86.7109,68.4442 C87.6303,71.6083 86.4596,73.7343 86.2215,74.1145 C85.8313,73.9261 83.8636,72.8383 82.8979,69.932 C83.0203,70.001 83.1552,70.0448 83.2947,70.061 C83.7053,69.9522 84.084,69.747 84.3993,69.4625 C84.6063,70.0807 84.9063,70.6638 85.2889,71.1917 L85.4344,71.3934 L85.4344,71.1488 C85.4821,70.3597 85.3903,69.5684 85.1632,68.8112 C85.1632,68.7748 85.1434,68.7451 85.1368,68.7153 L85.1566,68.7285 Z M87.6369,76.7001 C87.3657,75.9297 87.1177,75.1527 86.9027,74.3856 C87.4202,73.4572 87.7167,72.422 87.7692,71.3604 C88.0155,72.3774 88.3158,73.3806 88.6687,74.3658 C88.958,75.2476 89.4064,76.069 89.9915,76.7893 L90.1503,76.9844 L90.1503,76.7364 C90.1417,75.808 89.975,74.8878 89.6575,74.0153 C89.4161,73.3309 89.1383,72.6432 88.8374,71.9687 C89.5326,72.6771 90.3534,73.25 91.2581,73.6582 C91.4698,74.1773 91.6781,74.6898 91.8501,75.2089 C93.1068,78.7698 91.9791,81.1603 91.7641,81.5703 C91.3177,81.3951 88.8738,80.2478 87.6204,76.6935 L87.6369,76.7001 Z M92.7331,96.8686 C92.5732,96.8699 92.4166,96.8237 92.283,96.7359 C92.1494,96.6481 92.045,96.5225 91.9829,96.3752 C91.9208,96.2279 91.9039,96.0655 91.9343,95.9086 C91.9646,95.7517 92.041,95.6073 92.1535,95.4938 C92.2661,95.3803 92.4099,95.3028 92.5666,95.2712 C92.7233,95.2395 92.8859,95.2551 93.0337,95.316 C93.1815,95.3768 93.308,95.4802 93.3969,95.613 C93.4859,95.7458 93.5334,95.9021 93.5334,96.0619 C93.5343,96.1675 93.5142,96.2723 93.4744,96.3701 C93.4345,96.468 93.3757,96.557 93.3013,96.632 C93.2269,96.707 93.1384,96.7665 93.0409,96.8071 C92.9433,96.8477 92.8387,96.8686 92.7331,96.8686 Z M98.1831058,95.7313 C98.1818,95.8892 98.1338,96.0433 98.045,96.174 C97.9563,96.3047 97.8309,96.4062 97.6845,96.4657 C97.5382,96.5253 97.3775,96.5402 97.2226,96.5086 C97.0678,96.477 96.9259,96.4003 96.8146,96.2881 C96.7033,96.1759 96.6278,96.0334 96.5974,95.8783 C96.5671,95.7233 96.5833,95.5628 96.6441,95.4169 C96.7048,95.2711 96.8074,95.1465 96.9389,95.0589 C97.0703,94.9713 97.2248,94.9245 97.3828,94.9245 C97.4883,94.925 97.5927,94.9462 97.6901,94.9869 C97.7874,95.0277 97.8757,95.0873 97.9501,95.1622 C98.0244,95.2371 98.0832,95.3259 98.1232,95.4235 C98.1632,95.5212 98.1835,95.6258 98.1831058,95.7313 L98.1831058,95.7313 Z M102.039,96.5347 C101.929,96.5418 101.819,96.5262 101.715,96.4889 C101.611,96.4516 101.516,96.3935 101.435,96.318 C101.355,96.2426 101.291,96.1514 101.247,96.0502 C101.203,95.949 101.181,95.8399 101.181,95.7296 C101.181,95.6193 101.203,95.5102 101.247,95.409 C101.291,95.3078 101.355,95.2166 101.435,95.1412 C101.516,95.0657 101.611,95.0076 101.715,94.9703 C101.819,94.9331 101.929,94.9175 102.039,94.9245 C102.244,94.9376 102.436,95.0282 102.576,95.1777 C102.716,95.3273 102.794,95.5246 102.794,95.7296 C102.794,95.9346 102.716,96.132 102.576,96.2815 C102.436,96.4311 102.244,96.5216 102.039,96.5347 Z M95.1208,72.9904 C94.537,72.0078 93.8988,71.0585 93.2093,70.1469 C93.1437,69.6215 93.0331,69.1027 92.8786,68.5963 C93.6102,69.3062 94.4523,69.8924 95.3721,70.3321 C96.2391,71.4469 97.0365,72.614 97.7598,73.8269 C99.9524,77.5167 99.2877,80.3866 99.1454,80.8726 C98.6395,80.7735 95.6631,80.0725 93.4739,76.376 C92.9943,75.5759 92.5512,74.7725 92.151,73.9757 L92.5876,74.0682 L92.6504,74.0881 L92.6802,74.0153 L92.8587,73.6153 C93.0677,73.0746 93.198,72.5067 93.2457,71.929 C93.5301,72.4845 93.8409,73.0301 94.1617,73.5822 C94.6667,74.4673 95.3303,75.2519 96.1195,75.8966 L96.308,76.052 L96.265,75.8107 C96.0501,74.8222 95.6688,73.8775 95.1373,73.0168 L95.1208,72.9904 Z M90.2693,68.4872 C90.7268,67.9832 91.0657,67.3833 91.2614,66.7315 C91.3904,66.963 91.5028,67.1878 91.612,67.3928 C93.1431,70.385 92.3891,72.8052 92.2271,73.245 C91.7806,73.1226 89.3731,72.3093 87.8386,69.3171 C87.6071,68.8575 87.3856,68.3714 87.1607,67.8557 C87.8174,68.3139 88.5822,68.5931 89.3797,68.6657 C89.7134,69.2783 90.1395,69.8359 90.643,70.3189 L90.8249,70.4941 L90.7951,70.2395 C90.7047,69.631 90.5334,69.0372 90.2859,68.4739 L90.2693,68.4872 Z M98.8313,70.4214 L98.7089,70.4214 C98.0078,70.4214 95.5507,70.2461 93.2622,67.9747 C92.6046,67.3211 91.9841,66.6312 91.4036,65.9082 C91.4498,65.3815 91.4016,64.8508 91.2614,64.341 C91.6834,64.5889 92.144,64.7644 92.6239,64.8601 C93.1068,65.4288 93.5896,65.9545 94.0691,66.4273 C94.6718,67.039 95.3813,67.5354 96.1625,67.892 L96.3841,67.9879 L96.2849,67.7697 C95.9277,66.989 95.43,66.2807 94.8165,65.6801 C94.5619,65.4255 94.2973,65.1775 94.0129,64.9196 C94.6504,64.8514 95.2689,64.6617 95.8351,64.3609 L96.3543,64.8634 C98.7817,67.2804 98.8445,69.932 98.8313,70.4214 L98.8313,70.4214 Z M104.579,65.2833 C103.728,65.6006 102.825,65.7587 101.917,65.7495 C100.673,65.7485 99.4443,65.4778 98.3154,64.956 C97.568,64.6254 96.8074,64.2352 96.0567,63.8153 C96.1887,63.1874 96.1887,62.5388 96.0567,61.9109 C96.7578,62.3043 97.4622,62.6614 98.1533,62.9689 C98.925,63.3238 99.7536,63.5388 100.601,63.6037 L100.842,63.6037 L100.67,63.4351 C100.061,62.8425 99.3527,62.3622 98.5766,62.0167 C97.6461,61.6055 96.6945,61.2435 95.726,60.9322 C95.4885,60.4535 95.1658,60.0222 94.7735,59.6593 C95.2684,59.6451 95.7577,59.5501 96.222,59.3782 C97.5648,59.7635 98.8788,60.243 100.154,60.8132 C102.149,61.6701 103.731,63.2699 104.566,65.2734 L104.579,65.2833 Z M108.025,57.7086 C106.416,59.0062 104.407,59.7071 102.34,59.6923 C102.122,59.6923 101.897,59.6923 101.679,59.6725 C100.096,59.5565 98.5228,59.3356 96.9694,59.0112 C97.0289,58.9716 97.0686,58.9418 97.1282,58.9054 C97.5905,58.579 97.9942,58.1765 98.322,57.7152 C98.3617,57.6523 98.4047,57.5994 98.441,57.5465 C99.1025,57.6325 99.7639,57.6953 100.389,57.7449 C100.564,57.7449 100.746,57.7615 100.928,57.7615 C101.665,57.7599 102.397,57.6485 103.101,57.4308 L103.319,57.3647 L103.111,57.2622 C102.279,56.8735 101.381,56.6436 100.465,56.5844 C99.873,56.5447 99.2744,56.5183 98.6262,56.5117 C98.3873,55.8761 98.0074,55.303 97.5151,54.8354 C98.236,54.7891 98.9603,54.7692 99.658,54.7692 C100.452,54.7692 101.239,54.7924 101.996,54.8486 C104.29,54.9939 106.442,56.0099 108.012,57.6887 L108.025,57.7086 Z M102.34,51.043 C101.863,51.0407 101.386,51.0861 100.918,51.1786 C99.5416,51.4486 98.1848,51.8109 96.857,52.263 C96.9396,52.1495 97.0158,52.0313 97.0852,51.9093 C97.3668,51.4335 97.57,50.9155 97.687,50.3751 C99.1758,49.8557 100.7,49.4435 102.247,49.1419 C102.825,49.0301 103.412,48.9737 104,48.9732 C105.629,48.9583 107.228,49.4179 108.6,50.2958 C107.292,52.1085 105.331,53.3425 103.13,53.7377 C101.058,54.1224 98.9549,54.3172 96.8471,54.3196 C96.3729,54.0054 95.8449,53.7812 95.2894,53.6583 C95.6678,53.4359 96.0186,53.1695 96.3345,52.8648 C97.944,52.8127 99.5471,52.6369 101.13,52.3391 C102.043,52.1694 102.914,51.8248 103.696,51.324 L103.891,51.205 L103.666,51.1653 C103.23,51.0821 102.787,51.0412 102.343,51.043 L102.34,51.043 Z M100.432,70.8181 C100.154,70.5139 99.8499,70.2031 99.5423,69.899 C99.4694,69.0337 99.2595,68.1856 98.9206,67.3862 C100.609,68.6465 102.185,70.0515 103.63,71.5852 C106.626,74.7626 106.643,77.7151 106.606,78.2177 L106.474,78.2177 C105.664,78.2177 102.796,77.9862 99.9854,74.9973 C98.7378,73.6824 97.5883,72.2779 96.5461,70.795 C97.2416,71.009 97.9647,71.1204 98.6924,71.1256 C98.8644,71.1256 98.957,71.1256 98.957,71.1256 L99.0628,71.1256 C99.2281,71.3174 99.3935,71.4794 99.539,71.648 C100.284,72.4617 101.17,73.1337 102.155,73.6318 L102.383,73.7409 L102.274,73.5062 C101.804,72.5215 101.177,71.6193 100.419,70.8347 L100.432,70.8181 Z M105.158,95.8701 C105.158,96.0293 105.112,96.1851 105.024,96.3177 C104.936,96.4504 104.81,96.5539 104.663,96.6151 C104.516,96.6763 104.354,96.6925 104.198,96.6616 C104.042,96.6307 103.898,96.5541 103.786,96.4415 C103.673,96.329 103.597,96.1855 103.566,96.0294 C103.535,95.8732 103.551,95.7114 103.612,95.5644 C103.673,95.4175 103.777,95.2921 103.91,95.204 C104.042,95.116 104.198,95.0693 104.357,95.0699922 C104.569,95.0717 104.772,95.1566 104.921,95.3063 C105.071,95.4559 105.156,95.6585 105.158,95.8701 L105.158,95.8701 Z M101.421,94.131 C101.381,94.1243 101.341,94.1243 101.302,94.131 C101.302,92.2365 101.265,90.3684 101.236,88.4044 C102.695,88.714 104.029,89.4535 105.065,90.5278 C106.1,91.6021 106.79,92.9619 107.046,94.4319 C105.392,94.293 103.789,94.2004 102.165,94.1574 C101.92,94.1574 101.675,94.1574 101.421,94.1574 L101.421,94.131 Z M99.701,88.1532 C99.8604,88.1519 100.017,88.1979 100.15,88.2856 C100.283,88.3732 100.387,88.4984 100.448,88.6453 C100.51,88.7922 100.527,88.9541 100.496,89.1105 C100.466,89.2668 100.39,89.4106 100.277,89.5235 C100.165,89.6364 100.021,89.7133 99.8648,89.7445 C99.7086,89.7757 99.5465,89.7597 99.3994,89.6985 C99.2522,89.6374 99.1265,89.5339 99.0383,89.4012 C98.9501,89.2685 98.9034,89.1126 98.9039943,88.9533 C98.9039943,88.7417 98.9879,88.5386 99.1373,88.3887 C99.2866,88.2387 99.4894,88.154 99.701,88.1532 L99.701,88.1532 Z M99.701,90.4015 C99.8603,90.4002 100.016,90.4462 100.149,90.5337 C100.282,90.6211 100.386,90.7462 100.448,90.8928 C100.51,91.0395 100.527,91.2013 100.497,91.3576 C100.466,91.5138 100.39,91.6576 100.278,91.7706 C100.166,91.8837 100.023,91.9608 99.8669,91.9924 C99.7108,92.0239 99.5489,92.0084 99.4017,91.9478 C99.2544,91.8872 99.1285,91.7842 99.0399,91.6519 C98.9513,91.5197 98.9039942,91.3641 98.9039942,91.2049 C98.9036,91.0998 98.9239,90.9957 98.9637,90.8985 C99.0035,90.8012 99.0621,90.7128 99.1361,90.6382 C99.2101,90.5635 99.2981,90.5042 99.395,90.4636 C99.492,90.423 99.5959,90.4019 99.701,90.4015 L99.701,90.4015 Z M99.701,94.9047 C99.861,94.9027 100.018,94.9483 100.152,95.0358 C100.286,95.1232 100.391,95.2485 100.454,95.3958 C100.516,95.543 100.534,95.7055 100.504,95.8626 C100.474,96.0198 100.397,96.1645 100.285,96.2783 C100.173,96.3921 100.029,96.4699 99.8721,96.5019 C99.7153,96.5338 99.5525,96.5184 99.4045,96.4577 C99.2565,96.3969 99.1299,96.2935 99.0408,96.1606 C98.9516,96.0278 98.9041,95.8714 98.9039943,95.7114 C98.9032,95.4989 98.9865,95.2947 99.1359,95.1435 C99.2853,94.9923 99.4885,94.9064 99.701,94.9047 L99.701,94.9047 Z M99.701,92.6563922 C99.8593,92.6557 100.014,92.702 100.146,92.7894 C100.278,92.8768 100.381,93.0013 100.442,93.1473 C100.504,93.2932 100.52,93.454 100.49,93.6094 C100.46,93.7647 100.384,93.9076 100.273,94.0199 C100.161,94.1323 100.019,94.2091 99.8637,94.2406 C99.7086,94.2721 99.5476,94.2569 99.4011,94.197 C99.2547,94.137 99.1292,94.035 99.0408,93.9038 C98.9523,93.7726 98.9047,93.6181 98.9039942,93.4598 C98.9036,93.3547 98.9239,93.2506 98.9637,93.1534 C99.0035,93.0561 99.0621,92.9677 99.1361,92.8931 C99.2101,92.8185 99.2981,92.7592 99.395,92.7186 C99.492,92.6779 99.5959,92.6568 99.701,92.6563922 L99.701,92.6563922 Z M97.5515,85.151 L97.5515,84.1591 C97.5515,84.1591 98.9173,84.7179 99.2612,84.7179 C99.2612,84.3873 98.699,83.0118 98.699,83.0118 L100.703,83.0118 C100.703,83.0118 100.144,84.3807 100.144,84.7179 C100.475,84.7179 101.851,84.1591 101.851,84.1591 L101.851,86.1694 C101.851,86.1694 100.488,85.6073 100.144,85.6073 C100.144,85.9379 100.703,87.32 100.703,87.32 L98.699,87.32 C98.699,87.32 99.2612,85.9512 99.2612,85.6073 C98.9305,85.6073 97.5515,86.1694 97.5515,86.1694 L97.5515,85.1775 L97.5515,85.151 Z M95.845,95.8701 C95.845,96.0823 95.7607,96.2858 95.6106,96.4359 C95.4605,96.586 95.257,96.6703 95.0447,96.6703 C94.8325,96.6703 94.6289,96.586 94.4788,96.4359 C94.3287,96.2858 94.2444,96.0823 94.2444,95.8701 C94.2444,95.6579 94.3287,95.4544 94.4788,95.3043 C94.6289,95.1543 94.8325,95.07 95.0447,95.07 C95.257,95.07 95.4605,95.1543 95.6106,95.3043 C95.7607,95.4544 95.845,95.6579 95.845,95.8701 L95.845,95.8701 Z M98.16,88.3912 C98.1203,90.3552 98.107,92.2233 98.0806,94.1178 C98.0411,94.1121 98.001,94.1121 97.9615,94.1178 C97.7267,94.1178 97.4919,94.1178 97.2604,94.1178 C95.6069,94.1608 94.0063,94.2533 92.3428,94.3922 C92.6001,92.9219 93.2916,91.5621 94.3283,90.488 C95.365,89.4138 96.6994,88.6744 98.16,88.3648 L98.16,88.3912 Z M80.6689,90.9371 C80.4925,90.4756 80.271,90.0326 80.0075,89.6146 C79.5115,88.8706 78.1126,87.6572 77.7687,87.3663 C77.7488,87.2373 77.7224,87.1051 77.6926,86.9695 C77.4814,86.2533 77.1943,85.5616 76.8361,84.9064 C77.789,84.9165 78.7405,84.8324 79.6768,84.6551 C79.8699,84.6193 80.0609,84.573 80.249,84.5162 C80.7847,84.956 82.048,86.0999 82.3192,87.3001 C82.888,89.8129 82.3192,91.2677 82.3192,91.2677 L82.3192,90.9371 C81.773,91.0422 81.2118,91.0422 80.6656,90.9371 L80.6689,90.9371 Z M83.976,92.9209 C84.1579,93.2912 84.3067,93.6648 84.4225,93.9657 C84.2505,95.1626 84.558,96.4289 85.1533,96.9414 C84.6517,96.9891 84.1465,96.8988 83.6925,96.6802 C83.2384,96.4617 82.8527,96.1233 82.5771,95.7015 C82.4785,96.0006 82.4152,96.3102 82.3886,96.624 C81.9931,96.4077 81.6338,96.1311 81.3237,95.804 C81.3237,95.513 81.3237,95.0303 81.3237,94.2401 C81.3245,93.3404 81.177,92.4468 80.8872,91.595 L80.993,91.595 C81.4553,91.6023 81.9114,91.4883 82.3159,91.2644 C82.3159,91.2644 83.5229,92.0083 83.9694,92.9176 L83.976,92.9209 Z M70.6023,89.7005 C70.4141,89.7487 70.2329,89.821 70.0632,89.9154 L68.036,87.601 C69.8218,87.601 71.5018,87.6407 73.4033,87.6374 C73.5998,87.638 73.7959,87.6192 73.9887,87.5812 C74.1713,88.0706 74.417,88.5341 74.7196,88.9599 C75.3047,89.7209 75.9283,90.4514 76.588,91.1487 C76.8724,91.9488 77.2759,93.483 76.7038,94.5807 C76.2045,95.4553 75.5591,96.2381 74.7956,96.8951 C74.2317,96.9533 73.6623,96.8657 73.1421,96.6405 C72.6394,96.4487 71.4125,95.5296 71.4125,94.1641 C72.4509,94.6402 74.746,95.275 75.0503,92.8614 C75.3314,90.7321 73.4463,88.9202 70.5857,89.7171 L70.6023,89.7005 Z M61.1673,94.574 C61.4258,95.1091 61.6468,95.6615 61.8287,96.2272 L62.1594,95.8966 L62.4901,96.2272 C62.6715,95.6613 62.8925,95.1089 63.1515,94.574 C63.3899,94.1625 63.732,93.8205 64.1436,93.5822 C64.1436,93.5822 64.1039,97.0439 63.4822,97.8804 C62.3479,99.4178 62.1594,99.2029 62.1594,99.2029 C62.1594,99.2029 61.9742,99.4178 60.8365,97.8804 C60.2181,97.0439 60.1751,93.5822 60.1751,93.5822 C60.5868,93.8205 60.9288,94.1625 61.1673,94.574 L61.1673,94.574 Z M58.5216,89.9452 C58.3054,89.2466 58.2578,88.5067 58.3827,87.7862 L59.4674,87.7366 C60.1045,88.0334 60.6809,88.446 61.1673,88.9533 C61.5253,89.3729 61.8567,89.8147 62.1594,90.2758 C62.4442,89.8024 62.7767,89.3593 63.1515,88.9533 C63.8108,88.4345 64.5172,87.9785 65.2614,87.5911 L65.9129,87.5911 C66.093,88.3702 66.0599,89.1834 65.817,89.9452 C65.6009,90.825 65.1426,91.6268 64.4941,92.2596 C64.4941,92.2596 64.0808,92.6465 63.1713,93.5822 C62.6009,94.2273 62.2531,95.0387 62.1792,95.8966 C62.1026,95.0394 61.7552,94.2288 61.1871,93.5822 C60.2777,92.6465 59.8643,92.2596 59.8643,92.2596 C59.2158,91.6268 58.7575,90.825 58.5415,89.9452 L58.5216,89.9452 Z M47.939,94.574 C47.3636,93.4763 47.7704,91.929 48.0548,91.1421 C48.7145,90.4448 49.3381,89.7142 49.9233,88.9533 C50.2465,88.5011 50.5047,88.0058 50.6905,87.482 C51.2766,87.7102 51.8948,87.8452 52.5226,87.8821 L52.5888,87.8821 L52.5226,87.8821 C52.5294,87.8729 52.5349,87.8629 52.5392,87.8523 L56.0546,87.8523 L54.368,89.7766 C54.291,89.7472 54.2127,89.7219 54.1332,89.7005 C51.2428,88.9037 49.3875,90.7156 49.6389,92.8448 C49.8902,95.2585 52.2481,94.6236 53.2237,94.1475 C53.2865,95.513 52.0596,96.4322 51.5702,96.624 C51.0264,96.8562 50.4303,96.9384 49.8439,96.862 C49.7017,96.7364 49.5363,96.5843 49.3578,96.4024 C49.3337,96.3467 49.3061,96.2926 49.2751,96.2404 L49.3478,96.3958 C48.7951,95.8609 48.3248,95.247 47.9523,94.574 L47.939,94.574 Z M45.6241,95.5659 C45.0325,95.9994 44.3748,96.3344 43.6762,96.5578 C43.6713,96.3795 43.6547,96.2017 43.6266,96.0255 C43.5903,95.3643 43.5539,93.2945 44.2881,91.6083 C44.9112,90.3065 45.7573,89.1237 46.7882,88.1135 C46.7485,89.7997 47.5951,90.6164 47.5951,90.6164 C47.5951,90.6164 46.6361,92.4316 47.2644,94.2533 C47.2644,94.2533 46.4608,94.9146 45.6109,95.5759 L45.6241,95.5659 Z M43.3092,95.8966 C43.0182,96.1918 42.6836,96.4404 42.317,96.6339 C42.2905,96.3201 42.2272,96.0105 42.1285,95.7114 C41.8572,96.1303 41.4766,96.4671 41.0279,96.6856 C40.5791,96.9041 40.0793,96.996 39.5821,96.9513 C40.1675,96.419 40.4717,95.0898 40.2601,93.8566 C40.3692,93.5788 40.5048,93.2548 40.6635,92.9308 C41.012,92.3418 41.4877,91.838 42.0558,91.4562 C42.3527,91.558 42.6646,91.6094 42.9785,91.6083 C43.266,91.6255 43.5525,91.5614 43.8052,91.4231 C43.4813,92.3318 43.3136,93.2887 43.3092,94.2533 C43.3323,95.1163 43.3323,95.6155 43.3092,95.9065 L43.3092,95.8966 Z M40.7462,24.933 C40.7462,24.4205 42.4427,24.1659 44.384,24.1659 C46.3252,24.1659 48.0217,24.4205 48.0217,24.933 C48.0217,25.4455 46.3285,25.7133 44.384,25.7133 C42.4394,25.7133 40.7462,25.4554 40.7462,24.933 Z M53.0517,28.2591 C53.601,28.4346 54.1751,28.5195 54.7516,28.5104 C55.3376,28.5105 55.9219,28.4473 56.4944,28.322 C56.0942,28.7848 55.036,29.8627 53.8487,30.1272 C55.4626,31.3902 58.31,32.6599 60.3736,32.4416 C59.5061,32.9503 58.5186,33.2185 57.513,33.2186 C55.2344,33.2186 53.6073,32.1242 52.2018,30.3454 C52.4658,31.0724 52.6737,31.8185 52.8236,32.5772 C52.0464,32.3094 50.717,31.2745 49.791,30.4942 C50.3741,31.368 50.8087,32.3321 51.0774,33.3476 C49.8365,32.7714 48.6911,32.0087 47.6811,31.086 C48.1197,31.9585 48.4805,32.868 48.7592,33.8038 C48.2135,33.5889 46.3946,32.8119 45.1611,31.4894 C45.6518,32.5505 46.2165,33.5758 46.851,34.5577 C45.8176,34.0689 44.8489,33.4536 43.9673,32.726 C41.8448,30.9745 40.3383,28.5902 39.6681,25.9216 C42.0773,26.292 44.5071,26.5128 46.9436,26.5828 C50.168,26.5828 54.6656,26.4936 57.0169,25.7761 C56.7424,26.2621 55.79,27.5681 53.0484,28.2657 L53.0517,28.2591 Z M47.152,28.6526 L47.0759,28.4972 L47.0461,28.4443 L46.9932,28.4443 C46.8477,28.4443 46.6956,28.4443 46.5468,28.4443 C45.295,28.4284 44.0456,28.3312 42.8065,28.1533 L42.6907,28.1335 L42.6907,28.2492 C42.6963,28.5847 42.7718,28.9153 42.9124,29.2199 C43.0531,29.5244 43.2558,29.7963 43.5076,30.0181 L43.5704,30.071 L43.6299,30.0115 C44.6915,28.9502 47.0461,28.7782 47.0693,28.7782 L47.1983,28.7782 L47.1453,28.6526 L47.152,28.6526 Z M76.9518,24.933 C76.9518,24.4205 78.6516,24.1659 80.5896,24.1659 C82.5275,24.1659 84.2273,24.4205 84.2273,24.933 C84.2273,25.4455 82.5275,25.7133 80.5896,25.7133 C78.6516,25.7133 76.9518,25.4554 76.9518,24.933 Z M81.0195,32.7359 C80.1389,33.465 79.1701,34.0804 78.1357,34.5676 C78.7719,33.5873 79.3356,32.5618 79.8223,31.4993 C78.5921,32.8219 76.7699,33.5955 76.2243,33.8138 C76.5093,32.8801 76.8698,31.9711 77.3024,31.096 C76.2945,32.0184 75.1514,32.7811 73.9126,33.3575 C74.1751,32.3398 74.6102,31.3747 75.1991,30.5041 C74.2698,31.2844 72.9437,32.3193 72.1632,32.5871 C72.3164,31.8292 72.5242,31.0833 72.7849,30.3553 C71.3794,32.1341 69.7557,33.2285 67.4936,33.2285 C66.4839,33.2279 65.4923,32.9599 64.6198,32.4516 C66.6867,32.6632 69.5341,31.3935 71.1512,30.1371 C69.9739,29.8726 68.9157,28.7948 68.5056,28.3319 C69.0803,28.4575 69.6668,28.5207 70.255,28.5203 C70.8314,28.5275 71.4052,28.4426 71.9549,28.2691 C69.2265,27.5714 68.2708,26.2654 67.9864,25.7794 C70.3311,26.4969 74.8353,26.5861 78.063,26.5861 C80.4995,26.5162 82.9293,26.2953 85.3385,25.9249 C84.6683,28.5935 83.1618,30.9778 81.0393,32.7293 L81.0195,32.7359 Z M78.4532,28.4377 C78.2978,28.4377 78.149,28.4377 78.0035,28.4377 L77.9472,28.4377 L77.9208,28.4906 L77.8513,28.646 L77.7918,28.7716 L77.9208,28.7716 C77.9472,28.7716 80.3052,28.9435 81.3634,30.0049 L81.4197,30.0644 L81.4891,30.0115 C81.739,29.7889 81.9395,29.5166 82.0779,29.212 C82.2163,28.9073 82.2895,28.5772 82.2927,28.2426 L82.2927,28.1269 L82.1803,28.1467 C80.9422,28.3243 79.6939,28.4215 78.4433,28.4377 L78.4532,28.4377 Z" id="Shape"></path>
        </g>
    </g>
</svg>